<svg width="60" height="66" viewBox="0 0 60 66" fill="none" xmlns="http://www.w3.org/2000/svg">
<circle opacity="0.6" cx="30" cy="36" r="29" stroke="#262422" stroke-width="2"/>
<g clip-path="url(#clip0)">
<path d="M33.0454 28.5555C32.053 27.2072 32.7268 24.2904 32.9616 22.8073C33.3587 20.2898 33.8114 17.7691 34.5743 15.3337C34.961 14.1002 35.4262 12.891 35.9942 11.7302C36.4595 10.7779 37.0253 9.96265 37.7044 9.19054C37.8741 8.99777 38.1455 8.93668 38.3824 9.03569C38.9168 9.26006 39.4701 9.60977 39.8966 9.92683C40.4593 10.3461 40.146 10.4072 39.6587 10.7811C38.1309 11.9503 37.369 13.8896 36.5726 15.5981C35.7836 17.2919 35.3372 19.169 34.7849 20.9576C34.1771 22.9274 33.7831 25.0204 33.7108 27.0892C33.6804 27.9687 33.6741 28.2142 32.9846 28.822C33.0129 28.6345 33.0716 28.4522 33.0454 28.5555Z" fill="#C8E842"/>
<path d="M32.7216 24.5148C32.7227 24.5169 32.7248 24.5191 32.7258 24.5212C32.9595 24.8793 33.4111 25.0184 33.7978 24.8403C40.5421 21.7319 47.101 22.6262 50.5119 26.8954C56.6369 34.5618 53.7614 43.7671 48.1059 51.0184C42.9114 57.6788 33.4185 62.1608 26.6647 57.5281C25.8044 56.9383 24.7837 56.6086 23.7421 56.6423C18.3695 56.8161 13.4915 52.5879 11.6734 47.7772C8.6785 39.8538 8.1315 30.2715 12.9477 22.7747C14.4944 20.3657 16.4781 18.6118 19.2571 18.2084C25.2469 17.3394 29.4385 19.5061 32.7216 24.5148Z" fill="#C8E842"/>
<path d="M34.7211 21.9818C34.6939 21.9113 34.6824 21.8291 34.6897 21.7322C34.7054 21.5415 34.8553 21.3498 34.9454 21.1855C35.1822 20.7557 35.4232 20.3281 35.6684 19.9025C36.1243 19.1125 36.5749 18.2866 37.1481 17.5746C38.5596 15.8228 40.2509 14.2396 42.3698 13.398C44.3398 12.6154 46.3277 12.2214 48.4392 12.1487C50.3265 12.0834 52.4663 11.9823 54.3767 12.2267C54.6334 12.2593 54.7571 12.5606 54.5967 12.7649C53.5258 14.1311 51.0716 17.4461 50.2112 18.4373C48.8154 20.0458 46.9344 20.919 44.9665 21.5931C42.8644 22.3136 40.2362 22.5211 38.0283 22.4253C37.4111 22.399 36.7939 22.4253 36.1767 22.4011C35.7617 22.3842 34.9003 22.4474 34.7211 21.9818Z" fill="#1B5C3C"/>
<path d="M33.6124 18.8158C33.5999 18.8232 33.5863 18.8284 33.5705 18.8295C33.5003 18.8348 33.4008 18.7768 33.3358 18.7537C33.2436 18.72 33.1503 18.6852 33.0581 18.6515C32.8108 18.5598 32.5635 18.4671 32.3172 18.3723C31.7095 18.1406 31.1048 17.9025 30.5054 17.6497C30.0077 17.4401 29.5005 17.2294 29.0342 16.9535C27.1878 15.8622 25.4608 14.4812 24.3689 12.5894C23.3535 10.8303 22.7017 8.99851 22.3328 7.0045C22.0038 5.22327 21.6045 3.20715 21.5626 1.35956C21.5563 1.0741 21.8288 0.862369 22.1002 0.947691C25.6934 2.07162 28.8623 4.6692 30.9277 7.79346C32.6547 10.4047 33.2069 13.2267 33.5779 16.2951C33.6481 16.8776 33.7644 17.4928 33.7539 18.0827C33.7518 18.2154 33.7351 18.3492 33.7235 18.4808C33.7193 18.5588 33.7015 18.761 33.6124 18.8158Z" fill="#1B5C3C"/>
</g>
<defs>
<clipPath id="clip0">
<rect width="45" height="59.4286" fill="white" transform="translate(9.375)"/>
</clipPath>
</defs>
</svg>
