<svg width="60" height="60" viewBox="0 0 60 60" fill="none" xmlns="http://www.w3.org/2000/svg">
<circle opacity="0.6" cx="30" cy="30" r="29" stroke="#262422" stroke-width="2"/>
<path fill-rule="evenodd" clip-rule="evenodd" d="M28.6962 12.0566C39.0568 10.938 48.0103 18.2802 48.7228 28.4338C49.4416 38.6088 41.6455 47.7737 31.3038 48.8834C20.9496 50.0233 11.996 42.6811 11.2772 32.5061C10.5584 22.3311 18.3608 13.1877 28.6962 12.0566Z" fill="url(#paint0_linear)"/>
<path fill-rule="evenodd" clip-rule="evenodd" d="M32.9812 12.6196C37.3047 13.1701 40.1589 16.2079 39.3308 19.3867C38.9661 20.8034 37.9387 22.0115 36.5227 22.8632C38.0863 21.0546 37.5026 19.2254 36.8007 17.5839C36.1685 16.13 33.2001 14.1782 28.7138 12.9282C30.0261 12.5643 31.5023 12.4252 32.9812 12.6196Z" fill="#2F2D3F"/>
<path fill-rule="evenodd" clip-rule="evenodd" d="M32.6049 13.7127C36.7393 14.2284 39.4476 17.1348 38.6555 20.1782C38.5455 20.6491 38.3418 21.0827 38.0745 21.5171C38.1506 21.322 38.2008 21.1118 38.2521 20.9016C38.9755 18.0039 36.4235 15.2065 32.557 14.665C28.7099 14.1154 24.9987 16.0282 24.3001 18.9411C23.9111 20.4478 24.4273 21.9338 25.5564 23.098C23.9837 21.8562 23.1827 20.0924 23.6584 18.2664C24.4494 15.2229 28.4446 13.1818 32.6049 13.7127Z" fill="#2F2D3F"/>
<path fill-rule="evenodd" clip-rule="evenodd" d="M32.7376 13.7975C36.8389 14.3097 39.526 17.1932 38.7407 20.2121C38.6316 20.6792 38.4296 21.1092 38.1645 21.5401C38.24 21.3467 38.2897 21.1381 38.3406 20.9296C38.973 18.3708 37.045 15.8972 33.9135 15.0043C33.1246 14.5576 32.1904 14.1169 31.1421 13.7189C31.6611 13.6936 32.1961 13.7347 32.7376 13.7975Z" fill="#2F2D3F"/>
<path fill-rule="evenodd" clip-rule="evenodd" d="M26.3129 24.188C27.8016 24.6439 30.6436 23.0292 32.0329 21.6622C33.447 20.309 35.784 22.552 36.9051 22.5689C38.0454 22.5803 36.581 20.852 38.0733 19.8762C39.5849 18.8925 39.8475 17.7238 37.7031 15.8167C34.0655 12.5499 28.3134 11.5831 24.8491 15.6423C22.7425 18.1315 23.5312 18.8906 24.304 20.8718C25.0822 22.8747 25.5518 21.7727 25.0995 22.9402C24.6611 24.0779 23.6916 19.9042 22.2619 18.3067C20.8257 16.6874 21.237 15.8462 22.7667 15.9759C24.321 16.1207 25.3364 14.7717 25.8488 12.8683C26.3666 10.9866 24.9023 9.2583 26.7997 9.82587C28.7217 10.4085 31.3607 10.9905 32.3945 12.0411C33.423 13.0699 34.1991 10.8075 36.6697 10.1879C39.1403 9.56827 39.0247 9.61102 38.4371 10.6607C37.8356 11.7401 37.1643 14.3216 39.2655 15.7439C40.2963 16.4624 41.5252 17.1318 41.391 17.825C41.2622 18.54 39.9172 19.6759 39.1942 21.0145C38.6441 22.0507 38.7204 22.499 36.8777 23.5078C33.9424 25.0853 29.8716 26.0293 26.3129 24.188Z" fill="#2F2D3F"/>
<path fill-rule="evenodd" clip-rule="evenodd" d="M24.5117 22.9128C24.0079 22.6526 23.1473 19.5195 21.9693 18.1929C21.3836 17.5398 21.1188 17.0037 21.099 16.6123C21.6893 16.8877 22.1479 17.2119 22.4289 17.4145C22.8821 17.7172 22.9103 19.2553 23.4916 20.285C23.7997 20.8281 24.2028 21.9705 24.5117 22.9128Z" fill="#2F2D3F"/>
<path fill-rule="evenodd" clip-rule="evenodd" d="M37.5772 15.8609C33.8944 12.6876 28.2151 11.8136 24.7562 15.8526C24.5444 16.099 24.3844 16.3029 24.2299 16.5276C24.154 16.4832 24.1183 16.4239 24.1506 16.3883C24.6715 15.6912 25.7565 14.3055 26.2989 13.5288C26.8607 12.7452 26.2871 10.3068 26.689 10.3764C27.0909 10.446 29.0413 11.1497 27.9516 11.6223C26.8813 12.0881 26.9232 13.2282 28.419 12.6782C29.9342 12.1213 32.6884 12.3137 35.3298 13.702C36.8376 14.4956 37.43 15.2166 37.5772 15.8609Z" fill="#2F2D3F"/>
<path fill-rule="evenodd" clip-rule="evenodd" d="M39.0003 19.3385C39.8531 18.4601 39.7526 17.4376 38.101 15.9017C39.4846 16.3361 40.4149 16.6293 40.4579 17.5089C40.5032 18.4813 39.7527 19.1103 39.0003 19.3385Z" fill="#2F2D3F"/>
<path fill-rule="evenodd" clip-rule="evenodd" d="M40.9788 18.8142C40.506 19.3864 39.8984 20.0784 39.4956 20.8373C39.0865 21.5746 39.0356 22.0152 38.3328 22.5781C38.4431 21.8108 38.4011 21.3322 38.5249 20.9349C38.6779 20.4103 39.8826 19.5449 40.9788 18.8142Z" fill="#2F2D3F"/>
<path fill-rule="evenodd" clip-rule="evenodd" d="M26.2521 23.9137C27.7614 24.3743 30.646 22.7334 32.0569 21.3455C33.493 19.9715 35.8603 22.2433 36.9973 22.2591C37.0419 22.2662 37.081 22.2526 37.1256 22.2598C36.0534 23.4755 34.5111 21.9879 33.1927 22.014C32.1308 22.0415 30.8723 23.6883 28.9175 24.7932C28.0043 24.6462 27.1191 24.3682 26.2521 23.9137Z" fill="#2F2D3F"/>
<path fill-rule="evenodd" clip-rule="evenodd" d="M34.8527 12.8876C36.5147 13.6481 37.4188 14.948 37.477 14.2882C37.5533 13.6218 36.4515 12.8445 37.2073 11.7392C37.9874 10.6502 34.4944 11.8379 34.8527 12.8876Z" fill="#2F2D3F"/>
<path fill-rule="evenodd" clip-rule="evenodd" d="M32.1091 20.2949C32.757 20.0571 33.1148 19.2641 32.9284 18.5529C32.7366 17.8201 32.064 17.4044 31.4149 17.6422C30.767 17.8801 30.4103 18.6731 30.6021 19.4059C30.7884 20.1184 31.4611 20.5328 32.1091 20.2949Z" fill="#2F2D3F"/>
<defs>
<linearGradient id="paint0_linear" x1="29.655" y1="33.2018" x2="20.7001" y2="93.5999" gradientUnits="userSpaceOnUse">
<stop stop-color="#454862"/>
<stop offset="0.6148" stop-color="#2E2D37"/>
</linearGradient>
</defs>
</svg>
