<svg width="60" height="64" viewBox="0 0 60 64" fill="none" xmlns="http://www.w3.org/2000/svg">
<circle opacity="0.6" cx="30" cy="34" r="29" stroke="#262422" stroke-width="2"/>
<path d="M23.3146 58.7649C23.3146 58.7649 36.3091 61.6185 45.6075 53.1283C54.906 44.6381 54.137 35.4085 54.137 35.4085C54.137 35.4085 53.4264 25.1127 44.8724 22.4004C36.3184 19.6881 36.8808 16.7903 30.4452 15.615C22.3917 14.1459 17.9425 17.5152 15.2739 20.0333C10.4391 24.5945 7.7334 34.7612 11.6203 44.3002C14.1945 50.6159 23.3146 58.7649 23.3146 58.7649Z" fill="url(#paint0_linear)"/>
<path d="M42.6445 31.3586C42.7075 31.3573 42.7502 31.2888 42.7199 31.2325L41.0495 28.1434C41.0495 28.1434 36.065 20.4154 28.8015 17.9121C21.538 15.4087 14.9803 16.219 14.9803 16.219C14.9803 16.219 8.54664 17.1759 5.35802 17.1444C5.17291 17.1426 5.10436 17.3855 5.25396 17.4749C5.26597 17.4648 5.27749 17.4531 5.2895 17.4429C5.28854 17.4425 28.4171 18.7834 42.6445 31.3586Z" fill="#151406"/>
<path d="M15.9077 23.6035C18.3454 27.3276 26.6544 27.7512 28.4609 27.9178C32.8443 28.3226 34.5022 29.4648 35.8954 30.2921C37.1503 31.0373 41.7927 31.3748 42.7041 31.4352C42.7065 31.4351 42.7084 31.4335 42.7104 31.4344C28.4605 18.8138 5.3017 17.4625 5.3017 17.4625C5.28967 17.4727 5.27813 17.4844 5.26514 17.4941C5.27044 17.4978 5.27334 17.5016 5.27912 17.5042C7.75593 18.6811 14.9924 22.206 15.9077 23.6035Z" fill="#151406"/>
<path d="M33.3079 1.82293C33.4676 4.27504 33.4406 6.73924 33.1259 9.17669C32.7839 11.829 32.9959 15.6167 35.886 18.7581C40.9123 24.2216 41.3389 27.2577 43.4574 29.6685C43.4574 29.6685 45.4147 26.109 45.5416 21.7546C45.6684 17.4003 40.8933 11.4496 40.3187 8.21613C39.7442 4.9827 33.2264 0 33.2264 0C33.2264 0 33.2405 0.790543 33.3079 1.82293Z" fill="#151406"/>
<defs>
<linearGradient id="paint0_linear" x1="25.3288" y1="20.4987" x2="45.841" y2="71.719" gradientUnits="userSpaceOnUse">
<stop stop-color="#DD9C77"/>
<stop offset="0.7241" stop-color="#B46D48"/>
</linearGradient>
</defs>
</svg>
