<svg width="60" height="79" viewBox="0 0 60 79" fill="none" xmlns="http://www.w3.org/2000/svg">
<circle opacity="0.6" cx="30" cy="49" r="29" stroke="#262422" stroke-width="2"/>
<g clip-path="url(#clip0)">
<path d="M46.6128 62.1235C46.3778 63.6576 45.7815 65.1217 44.7078 66.3743C43.1318 68.2146 40.8127 69.5008 38.6506 70.5405C36.3608 71.6429 33.9212 72.4493 31.3993 72.8066C26.9931 73.4307 22.4428 72.5645 18.8297 69.9105C17.2008 68.7148 15.7982 67.204 14.8376 65.4235C13.7169 63.3441 13.3483 61.0226 13.2719 58.6879C13.1852 55.9989 13.1999 53.1991 13.9181 50.5859C14.607 48.0806 15.9436 45.8233 16.8645 43.4041C17.1612 42.6239 17.3874 41.8365 17.5621 41.0417C17.4975 41.03 17.4373 40.9717 17.449 40.8857C18.0909 36.4264 17.3536 31.9496 17.4432 27.4757C17.4726 25.9504 17.5754 24.1771 18.0013 22.5381C18.0791 21.5217 18.2848 20.5097 18.7004 19.5808C19.5391 17.7113 21.3633 16.1699 23.515 16.2355C25.7637 16.3026 27.2428 18.2013 28.2415 19.9905C28.7629 20.9267 29.2197 21.8964 29.6222 22.888C30.1715 23.9934 30.5989 25.1731 30.9514 26.3645C31.3538 27.2307 31.7269 28.1115 32.0809 28.9981C32.8138 30.834 33.4644 32.702 34.1327 34.5642C35.387 35.9656 36.5988 37.4005 37.74 38.9273C39.5877 41.3961 41.2915 43.9728 42.8586 46.6268C44.3303 49.1233 45.6904 51.7423 46.4395 54.5538C47.071 56.9074 47.2238 59.6518 46.6128 62.1235Z" fill="#E4AA07"/>
<path d="M36.9643 7.11083C36.0668 8.25488 35.0854 9.32493 33.9892 10.2898C33.4611 10.7552 32.909 11.1963 32.338 11.6111C31.8148 11.9908 31.2538 12.3764 30.5879 12.4474C29.9589 12.5166 29.3769 12.2654 28.7889 12.0901C27.8444 11.8097 27.1017 12.0483 26.2391 12.4455C25.5003 12.7853 24.7965 13.1933 24.0986 13.6061C23.4567 13.9858 22.7469 14.3753 22.4514 15.0861C22.4384 15.1172 22.4194 15.1406 22.3975 15.1601C22.3795 15.1971 22.3615 15.236 22.3436 15.275C22.6091 16.085 22.8787 16.8971 23.0005 17.7383C23.0404 18.0051 22.683 18.1102 22.5831 17.8503C22.2128 16.8873 21.9792 15.8747 21.6966 14.8835C21.5489 14.3685 21.4171 13.8252 21.2194 13.3257C21.0088 12.7902 20.6703 12.5653 20.1881 12.2615C18.471 11.1788 16.5801 10.1652 15.0477 8.8381C14.9159 8.72321 15.0846 8.55769 15.2214 8.61805C16.2776 9.08541 17.251 9.7475 18.2244 10.3599C19.1469 10.9422 20.1422 11.4777 21.0158 12.13C21.0178 12.1106 21.0217 12.0901 21.0237 12.0716C20.6534 10.6092 20.3489 9.12728 20.0174 7.65705C19.7009 6.26083 19.2726 4.81202 19.4533 3.36906C19.639 1.8891 20.3638 0.502613 21.0517 -0.806956C21.7835 -2.20123 22.5861 -3.55754 23.3928 -4.90995C23.4877 -5.06866 23.7622 -5.00537 23.7542 -4.81551C23.6953 -3.39007 23.6304 -1.9549 23.3409 -0.55283C23.0544 0.829764 22.3366 2.08286 22.067 3.46156C21.7725 4.97462 22.1339 6.54806 21.9772 8.07865C21.8324 9.48656 21.6058 10.8886 21.3971 12.2887C21.4161 12.3861 21.4351 12.4815 21.453 12.5789C21.454 12.5857 21.454 12.5916 21.454 12.5974C21.8194 13.1592 21.9103 13.906 22.1029 14.5321C22.1289 14.6177 22.1569 14.7034 22.1848 14.7891C22.5432 13.7239 23.1063 12.6899 23.9499 11.9343C24.8674 11.1116 26.0384 10.6199 27.2095 10.2499C28.733 9.76892 30.3014 9.41353 31.8468 9.00557C33.5669 8.5499 35.1194 7.6405 36.6997 6.85573C36.8545 6.77979 37.0901 6.9492 36.9643 7.11083Z" fill="#485114"/>
</g>
<defs>
<clipPath id="clip0">
<rect width="34" height="73" fill="white" transform="translate(13)"/>
</clipPath>
</defs>
</svg>
