<svg width="64" height="64" viewBox="0 0 64 64" fill="none" xmlns="http://www.w3.org/2000/svg">
<circle opacity="0.4" cx="32" cy="32" r="31" stroke="#14110E" stroke-width="2"/>
<path d="M19.6188 12L22.571 25.4016L40.8275 26.7283C40.8275 26.7283 39.2989 17.2053 37.8752 14.5472C37.8752 14.5472 30.1136 13.1095 19.6188 12Z" fill="#763B2A"/>
<path d="M12.0762 12.5547C12.0762 12.5547 16.119 12.2219 19.6188 12L22.571 25.4016L15.6855 32.5993C15.6855 32.5993 15.795 30.4959 12.0762 12.5547Z" fill="#8C503F"/>
<path d="M22.5709 25.4015L40.8274 26.7282C40.8274 26.7282 41.2654 32.4883 41.3749 33.7041L15.6854 32.5946L22.5709 25.4015Z" fill="#441803"/>
<path d="M12.0762 12.5546C12.0762 12.5546 15.795 30.7177 15.6855 32.5992L13.6093 34.3697C13.6093 34.3697 10.8761 18.4209 10 14.8798L12.0762 12.5546Z" fill="#753C2B"/>
<path d="M41.3704 33.7041C41.3704 33.7041 17.3236 32.2664 15.6809 32.5946L13.6047 34.3652L39.6182 35.8029L41.3704 33.7041Z" fill="#5E2C1E"/>
<path d="M24.8706 33.9722L35.3335 43.3149L50.3228 33.6856C50.3228 33.6856 43.3278 26.7097 40.6037 25.3506C40.6037 25.3506 33.7 28.7206 24.8706 33.9722Z" fill="#763B2A"/>
<path d="M19.354 38.8631C19.354 38.8631 22.2926 36.2096 24.8752 33.9722L35.3381 43.3149L34.3753 53.3141C34.3753 53.3141 33.1752 51.5112 19.354 38.8631Z" fill="#8C503F"/>
<path d="M35.3336 43.3149L50.3229 33.6855C50.3229 33.6855 54.1741 38.1882 55 39.1312L34.3754 53.3141L35.3336 43.3149Z" fill="#441803"/>
<path d="M19.354 38.8633C19.354 38.8633 33.3122 51.6963 34.3753 53.3142L33.8415 56.0001C33.8415 56.0001 21.996 44.4199 19.1578 42.0068L19.354 38.8633Z" fill="#753C2B"/>
<path d="M54.9999 39.1313C54.9999 39.1313 35.443 52.0753 34.3753 53.3142L33.8414 56.0001L54.9224 41.9004L54.9999 39.1313Z" fill="#5E2C1E"/>
</svg>
