<svg width="76" height="100" viewBox="0 0 76 100" fill="none" xmlns="http://www.w3.org/2000/svg" xmlns:xlink="http://www.w3.org/1999/xlink">
<g clip-path="url(#clip0)">
<path d="M39.9767 48.0501C38.3007 45.7814 39.4387 40.8734 39.8351 38.3777C40.5059 34.1415 41.2704 29.9 42.5588 25.802C43.2119 23.7264 43.9977 21.6916 44.9569 19.7384C45.7427 18.136 46.6984 16.7641 47.8452 15.4649C48.1319 15.1406 48.5903 15.0378 48.9903 15.2044C49.8929 15.5819 50.8273 16.1704 51.5476 16.7039C52.498 17.4093 51.9688 17.5121 51.1459 18.1413C48.5655 20.1088 47.2789 23.3719 45.9338 26.2469C44.6012 29.097 43.8472 32.2556 42.9145 35.2653C41.8881 38.5798 41.2226 42.1017 41.1005 45.5828C41.0492 47.0628 41.0386 47.4758 39.874 48.4986C39.9218 48.1831 40.0209 47.8764 39.9767 48.0501Z" fill="#C8E842"/>
<path d="M39.4298 41.2508C39.4316 41.2544 39.4351 41.2579 39.4369 41.2615C39.8316 41.8641 40.5944 42.0981 41.2474 41.7985C52.6378 36.568 63.715 38.0728 69.4756 45.2566C79.8201 58.1567 74.9637 73.6464 65.4122 85.8482C56.6393 97.0555 40.6067 104.597 29.2004 96.8021C27.7474 95.8095 26.0236 95.2547 24.2645 95.3114C15.1907 95.6039 6.95235 88.4891 3.88176 80.3942C-1.17631 67.0617 -2.10013 50.9374 6.03384 38.3227C8.64605 34.269 11.9963 31.3179 16.6898 30.639C26.8059 29.1767 33.8851 32.8227 39.4298 41.2508Z" fill="#C8E842"/>
<path d="M39.4298 41.2508C39.4316 41.2544 39.4351 41.2579 39.4369 41.2615C39.8316 41.8641 40.5944 42.0981 41.2474 41.7985C52.6378 36.568 63.715 38.0728 69.4756 45.2566C79.8201 58.1567 74.9637 73.6464 65.4122 85.8482C56.6393 97.0555 40.6067 104.597 29.2004 96.8021C27.7474 95.8095 26.0236 95.2547 24.2645 95.3114C15.1907 95.6039 6.95235 88.4891 3.88176 80.3942C-1.17631 67.0617 -2.10013 50.9374 6.03384 38.3227C8.64605 34.269 11.9963 31.3179 16.6898 30.639C26.8059 29.1767 33.8851 32.8227 39.4298 41.2508Z" fill="url(#pattern0)" fill-opacity="0.4"/>
<path d="M42.8067 36.9887C42.7607 36.8699 42.7413 36.7317 42.7537 36.5686C42.7802 36.2478 43.0333 35.9252 43.1855 35.6487C43.5855 34.9255 43.9925 34.2059 44.4066 33.4898C45.1765 32.1605 45.9375 30.7708 46.9056 29.5726C49.2895 26.625 52.146 23.961 55.7245 22.5448C59.0517 21.2278 62.409 20.5649 65.9751 20.4426C69.1625 20.3327 72.7764 20.1626 76.0028 20.5738C76.4364 20.6287 76.6452 21.1356 76.3744 21.4795C74.5657 23.7784 70.4208 29.3564 68.9678 31.0243C66.6105 33.7309 63.4337 35.2003 60.11 36.3346C56.5598 37.547 52.1212 37.8962 48.3922 37.7349C47.3498 37.6906 46.3074 37.7349 45.265 37.6941C44.5641 37.6658 43.1094 37.7721 42.8067 36.9887Z" fill="#1B5C3C"/>
<path d="M42.8067 36.9887C42.7607 36.8699 42.7413 36.7317 42.7537 36.5686C42.7802 36.2478 43.0333 35.9252 43.1855 35.6487C43.5855 34.9255 43.9925 34.2059 44.4066 33.4898C45.1765 32.1605 45.9375 30.7708 46.9056 29.5726C49.2895 26.625 52.146 23.961 55.7245 22.5448C59.0517 21.2278 62.409 20.5649 65.9751 20.4426C69.1625 20.3327 72.7764 20.1626 76.0028 20.5738C76.4364 20.6287 76.6452 21.1356 76.3744 21.4795C74.5657 23.7784 70.4208 29.3564 68.9678 31.0243C66.6105 33.7309 63.4337 35.2003 60.11 36.3346C56.5598 37.547 52.1212 37.8962 48.3922 37.7349C47.3498 37.6906 46.3074 37.7349 45.265 37.6941C44.5641 37.6658 43.1094 37.7721 42.8067 36.9887Z" fill="url(#pattern1)" fill-opacity="0.4"/>
<path d="M40.9343 31.6612C40.913 31.6736 40.89 31.6824 40.8635 31.6842C40.7449 31.6931 40.5768 31.5956 40.467 31.5566C40.3113 31.4999 40.1538 31.4414 39.9981 31.3847C39.5804 31.2305 39.1627 31.0745 38.7468 30.915C37.7203 30.525 36.6992 30.1244 35.6868 29.699C34.8462 29.3463 33.9896 28.9918 33.202 28.5274C30.0837 26.6912 27.1671 24.3674 25.3229 21.1841C23.608 18.224 22.5072 15.1417 21.8842 11.7864C21.3285 8.78913 20.6542 5.39661 20.5834 2.28769C20.5728 1.80735 21.033 1.45107 21.4913 1.59464C27.56 3.48588 32.9118 7.8568 36.4001 13.114C39.3167 17.5079 40.2494 22.2564 40.8759 27.4196C40.9944 28.3998 41.1909 29.4349 41.1732 30.4275C41.1696 30.6509 41.1413 30.876 41.1219 31.0975C41.1148 31.2287 41.0847 31.569 40.9343 31.6612Z" fill="#1B5C3C"/>
<path d="M40.9343 31.6612C40.913 31.6736 40.89 31.6824 40.8635 31.6842C40.7449 31.6931 40.5768 31.5956 40.467 31.5566C40.3113 31.4999 40.1538 31.4414 39.9981 31.3847C39.5804 31.2305 39.1627 31.0745 38.7468 30.915C37.7203 30.525 36.6992 30.1244 35.6868 29.699C34.8462 29.3463 33.9896 28.9918 33.202 28.5274C30.0837 26.6912 27.1671 24.3674 25.3229 21.1841C23.608 18.224 22.5072 15.1417 21.8842 11.7864C21.3285 8.78913 20.6542 5.39661 20.5834 2.28769C20.5728 1.80735 21.033 1.45107 21.4913 1.59464C27.56 3.48588 32.9118 7.8568 36.4001 13.114C39.3167 17.5079 40.2494 22.2564 40.8759 27.4196C40.9944 28.3998 41.1909 29.4349 41.1732 30.4275C41.1696 30.6509 41.1413 30.876 41.1219 31.0975C41.1148 31.2287 41.0847 31.569 40.9343 31.6612Z" fill="url(#pattern2)" fill-opacity="0.4"/>
</g>
<defs>
<pattern id="pattern0" patternContentUnits="objectBoundingBox" width="1" height="1">
<use xlink:href="#image0" transform="matrix(0.000595405 0.000139775 -0.000166434 0.000691009 -0.335622 -0.291602)"/>
</pattern>
<pattern id="pattern1" patternContentUnits="objectBoundingBox" width="1" height="1">
<use xlink:href="#image0" transform="matrix(0.000595405 0.000139775 -0.000166434 0.000691009 -0.335622 -0.291602)"/>
</pattern>
<pattern id="pattern2" patternContentUnits="objectBoundingBox" width="1" height="1">
<use xlink:href="#image0" transform="matrix(0.000595405 0.000139775 -0.000166434 0.000691009 -0.335622 -0.291602)"/>
</pattern>
<clipPath id="clip0">
<rect width="76" height="100" fill="white"/>
</clipPath>
</defs>
</svg>
