<svg width="74" height="78" viewBox="0 0 74 78" fill="none" xmlns="http://www.w3.org/2000/svg" xmlns:xlink="http://www.w3.org/1999/xlink">
<path fill-rule="evenodd" clip-rule="evenodd" d="M34.4611 5.96028C54.637 3.77916 72.073 18.0964 73.4604 37.8959C74.8601 57.7372 59.6783 75.6086 39.5391 77.7725C19.3756 79.9953 1.93965 65.6781 0.539892 45.8368C-0.859872 25.9956 14.3343 8.16595 34.4611 5.96028Z" fill="url(#paint0_linear)"/>
<path fill-rule="evenodd" clip-rule="evenodd" d="M34.4611 5.96028C54.637 3.77916 72.073 18.0964 73.4604 37.8959C74.8601 57.7372 59.6783 75.6086 39.5391 77.7725C19.3756 79.9953 1.93965 65.6781 0.539892 45.8368C-0.859872 25.9956 14.3343 8.16595 34.4611 5.96028Z" fill="url(#pattern0)" fill-opacity="0.4"/>
<path fill-rule="evenodd" clip-rule="evenodd" d="M42.8047 7.05838C51.2242 8.13167 56.7824 14.0554 55.1698 20.2541C54.4595 23.0167 52.4588 25.3725 49.7014 27.0334C52.7462 23.5066 51.6096 19.9395 50.2426 16.7387C49.0116 13.9036 43.231 10.0976 34.4945 7.66001C37.0501 6.95041 39.9248 6.67917 42.8047 7.05838Z" fill="#120E4A"/>
<path fill-rule="evenodd" clip-rule="evenodd" d="M42.0725 9.1897C50.1238 10.1953 55.3979 15.8628 53.8554 21.7975C53.6411 22.7158 53.2445 23.5611 52.724 24.4083C52.8721 24.0279 52.9698 23.618 53.0697 23.2082C54.4784 17.5577 49.5088 12.1027 41.9793 11.0467C34.4876 9.97497 27.2605 13.705 25.9 19.385C25.1424 22.3232 26.1476 25.2209 28.3465 27.491C25.2838 25.0695 23.7241 21.6301 24.6504 18.0694C26.1908 12.1346 33.9709 8.15447 42.0725 9.1897Z" fill="#120E4A"/>
<path fill-rule="evenodd" clip-rule="evenodd" d="M42.3313 9.35515C50.3181 10.354 55.5507 15.9768 54.0215 21.8636C53.8091 22.7745 53.4158 23.613 52.8996 24.4533C53.0464 24.076 53.1433 23.6694 53.2423 23.2628C54.4739 18.2732 50.7193 13.4497 44.6211 11.7084C43.0848 10.8374 41.2657 9.97802 39.2243 9.20189C40.235 9.15254 41.2768 9.23263 42.3313 9.35515Z" fill="#120E4A"/>
<path fill-rule="evenodd" clip-rule="evenodd" d="M29.8194 29.6165C32.7184 30.5057 38.2528 27.357 40.9584 24.6913C43.7122 22.0525 48.2633 26.4264 50.4464 26.4593C52.6669 26.4816 49.8153 23.1113 52.7213 21.2086C55.665 19.2904 56.1763 17.0114 52.0005 13.2925C44.9166 6.92233 33.7151 5.03712 26.9688 12.9525C22.8666 17.8064 24.4025 19.2867 25.9073 23.1499C27.4227 27.0557 28.3372 24.9067 27.4565 27.1833C26.6028 29.4019 24.7147 21.2632 21.9306 18.1481C19.1338 14.9904 19.9348 13.3501 22.9136 13.603C25.9404 13.8854 27.9179 11.2548 28.9157 7.54315C29.924 3.87396 27.0725 0.503686 30.7673 1.61045C34.5102 2.74665 39.6493 3.8814 41.6626 5.93006C43.6654 7.93622 45.1767 3.52456 49.988 2.31634C54.7992 1.10812 54.574 1.19149 53.4298 3.23831C52.2584 5.34316 50.9512 10.3772 55.0431 13.1506C57.0503 14.5516 59.4435 15.857 59.1821 17.2087C58.9313 18.603 56.312 20.8181 54.9042 23.4283C53.8328 25.4489 53.9814 26.3231 50.3931 28.2903C44.677 31.3662 36.7496 33.2071 29.8194 29.6165Z" fill="#120E4A"/>
<path fill-rule="evenodd" clip-rule="evenodd" d="M26.312 27.13C25.3309 26.6226 23.6551 20.5129 21.3611 17.9262C20.2204 16.6525 19.7048 15.6071 19.6663 14.844C20.8158 15.381 21.7088 16.0132 22.256 16.4082C23.1387 16.9986 23.1936 19.9979 24.3255 22.0057C24.9255 23.0647 25.7106 25.2925 26.312 27.13Z" fill="#120E4A"/>
<path fill-rule="evenodd" clip-rule="evenodd" d="M51.7555 13.3788C44.5837 7.19081 33.524 5.48635 26.7882 13.3624C26.3757 13.8429 26.0642 14.2406 25.7633 14.6787C25.6155 14.5921 25.5459 14.4765 25.6089 14.407C26.6232 13.0478 28.7361 10.3456 29.7923 8.831C30.8864 7.30313 29.7695 2.5482 30.5521 2.68388C31.3347 2.81956 35.1329 4.19177 33.0108 5.11333C30.9266 6.02165 31.0081 8.24497 33.9209 7.17233C36.8716 6.08644 42.2351 6.46167 47.3789 9.16877C50.3151 10.7163 51.4688 12.1223 51.7555 13.3788Z" fill="#120E4A"/>
<path fill-rule="evenodd" clip-rule="evenodd" d="M54.527 20.1601C56.1877 18.4472 55.9921 16.4534 52.7756 13.4584C55.4702 14.3053 57.2818 14.8772 57.3655 16.5924C57.4537 18.4885 55.9921 19.715 54.527 20.1601Z" fill="#120E4A"/>
<path fill-rule="evenodd" clip-rule="evenodd" d="M58.3798 19.1378C57.4592 20.2536 56.2759 21.603 55.4915 23.0827C54.6947 24.5205 54.5957 25.3797 53.227 26.4773C53.4419 24.981 53.3601 24.0478 53.6011 23.273C53.8991 22.2502 56.245 20.5626 58.3798 19.1378Z" fill="#120E4A"/>
<path fill-rule="evenodd" clip-rule="evenodd" d="M29.7011 29.0818C32.6402 29.98 38.2576 26.7802 41.0052 24.0737C43.8017 21.3945 48.4117 25.8245 50.6259 25.8552C50.7128 25.8692 50.7889 25.8426 50.8757 25.8566C48.7878 28.2273 45.7844 25.3264 43.2169 25.3773C41.149 25.431 38.6983 28.6422 34.8915 30.7967C33.1132 30.5102 31.3894 29.9681 29.7011 29.0818Z" fill="#120E4A"/>
<path fill-rule="evenodd" clip-rule="evenodd" d="M46.4501 7.58096C49.6867 9.06379 51.4472 11.5986 51.5607 10.3121C51.7092 9.01256 49.5636 7.49677 51.0353 5.34159C52.5546 3.21802 45.7524 5.53395 46.4501 7.58096Z" fill="#120E4A"/>
<path fill-rule="evenodd" clip-rule="evenodd" d="M41.1068 22.0251C42.3687 21.5613 43.0654 20.015 42.7023 18.6282C42.3289 17.1991 41.019 16.3886 39.7551 16.8523C38.4932 17.3162 37.7987 18.8625 38.1721 20.2916C38.535 21.6809 39.845 22.4889 41.1068 22.0251Z" fill="#120E4A"/>
<defs>
<pattern id="pattern0" patternContentUnits="objectBoundingBox" width="1" height="1">
<use xlink:href="#image0" transform="matrix(0.000595405 0.000139775 -0.000166434 0.000691009 -0.335622 -0.291602)"/>
</pattern>
<linearGradient id="paint0_linear" x1="48.6842" y1="5.85022" x2="30.499" y2="79.5473" gradientUnits="userSpaceOnUse">
<stop stop-color="#454862"/>
<stop offset="0.0001" stop-color="#3B3B92"/>
<stop offset="1" stop-color="#120E4A"/>
</linearGradient>
</defs>
</svg>
