<svg width="94" height="108" viewBox="0 0 94 108" fill="none" xmlns="http://www.w3.org/2000/svg" xmlns:xlink="http://www.w3.org/1999/xlink">
<path d="M33.8577 100.624C33.8577 100.624 56.0052 105.51 71.8534 90.9725C87.7015 76.4346 86.3908 60.6306 86.3908 60.6306C86.3908 60.6306 85.1797 43.0009 70.6004 38.3566C56.0211 33.7122 56.9798 28.7502 46.011 26.7378C32.2847 24.2222 24.7016 29.9915 20.1532 34.3033C11.9128 42.1135 7.30129 59.5221 13.9261 75.8559C18.3136 86.6704 33.8577 100.624 33.8577 100.624Z" fill="url(#paint0_linear)"/>
<path d="M33.8577 100.624C33.8577 100.624 56.0052 105.51 71.8534 90.9725C87.7015 76.4346 86.3908 60.6306 86.3908 60.6306C86.3908 60.6306 85.1797 43.0009 70.6004 38.3566C56.0211 33.7122 56.9798 28.7502 46.011 26.7378C32.2847 24.2222 24.7016 29.9915 20.1532 34.3033C11.9128 42.1135 7.30129 59.5221 13.9261 75.8559C18.3136 86.6704 33.8577 100.624 33.8577 100.624Z" fill="url(#pattern0)" fill-opacity="0.4"/>
<path d="M66.8079 53.6917C66.9153 53.6896 66.9881 53.5721 66.9364 53.4758L64.089 48.1864C64.089 48.1864 55.5925 34.9542 43.2124 30.6685C30.8324 26.3827 19.6555 27.7708 19.6555 27.7708C19.6555 27.7708 8.69021 29.41 3.25555 29.3564C2.94006 29.3534 2.82325 29.7693 3.07823 29.9224C3.09871 29.905 3.11834 29.8851 3.13881 29.8676C3.13717 29.8669 42.5574 32.1604 66.8079 53.6917Z" fill="#151406"/>
<path d="M21.2367 40.4157C25.3921 46.7922 39.5539 47.5166 42.6329 47.8015C50.104 48.4941 52.9298 50.4497 55.3045 51.8661C57.4435 53.1421 65.3559 53.7194 66.9093 53.8226C66.9134 53.8224 66.9167 53.8198 66.92 53.8213C42.6309 32.2127 3.15907 29.9018 3.15907 29.9018C3.13858 29.9193 3.11891 29.9392 3.09677 29.9559C3.10581 29.9622 3.11074 29.9686 3.12059 29.9732C7.34222 31.9881 19.6764 38.0229 21.2367 40.4157Z" fill="#151406"/>
<path d="M50.89 3.12144C51.1623 7.32022 51.1162 11.5397 50.5798 15.7134C49.997 20.255 50.3583 26.7408 55.2842 32.1198C63.8509 41.4751 64.5779 46.6739 68.1888 50.8019C68.1888 50.8019 71.5247 44.7069 71.7409 37.2509C71.9571 29.7949 63.8185 19.6053 62.8392 14.0686C61.86 8.53198 50.7512 0 50.7512 0C50.7512 0 50.7752 1.35366 50.89 3.12144Z" fill="#151406"/>
<defs>
<pattern id="pattern0" patternContentUnits="objectBoundingBox" width="1" height="1">
<use xlink:href="#image0" transform="matrix(0.000595405 0.000139775 -0.000166434 0.000691009 -0.335622 -0.291602)"/>
</pattern>
<linearGradient id="paint0_linear" x1="37.2906" y1="35.1002" x2="72.5321" y2="122.693" gradientUnits="userSpaceOnUse">
<stop stop-color="#DD9C77"/>
<stop offset="0.7241" stop-color="#B46D48"/>
</linearGradient>
</defs>
</svg>
