<svg width="74" height="158" viewBox="0 0 74 158" fill="none" xmlns="http://www.w3.org/2000/svg" xmlns:xlink="http://www.w3.org/1999/xlink">
<g clip-path="url(#clip0)">
<path d="M73.1573 134.459C72.6459 137.779 71.348 140.948 69.0112 143.659C65.5811 147.643 60.5335 150.426 55.8279 152.677C50.8443 155.063 45.5345 156.808 40.0457 157.581C30.4556 158.932 20.5522 157.057 12.6882 151.313C9.14307 148.725 6.09021 145.455 3.99955 141.602C1.56046 137.101 0.758071 132.076 0.591842 127.023C0.403235 121.203 0.43521 115.143 1.99841 109.487C3.49767 104.065 6.40668 99.1791 8.41102 93.943C9.05676 92.2544 9.54905 90.5501 9.92946 88.8299C9.78881 88.8047 9.65774 88.6784 9.68331 88.4922C11.0803 78.8406 9.47553 69.1511 9.67053 59.4678C9.73446 56.1665 9.95823 52.3285 10.8853 48.781C11.0547 46.5811 11.5022 44.3907 12.4069 42.3802C14.2322 38.3339 18.2026 34.9978 22.8858 35.1399C27.7799 35.2851 30.999 39.3944 33.1728 43.2671C34.3076 45.2934 35.3018 47.3922 36.1777 49.5384C37.3733 51.9308 38.3035 54.4842 39.0707 57.0628C39.9466 58.9376 40.7586 60.8439 41.529 62.7629C43.1242 66.7366 44.5403 70.7796 45.9948 74.8101C48.7248 77.8432 51.3621 80.9489 53.846 84.2534C57.8674 89.5969 61.5756 95.1739 64.9865 100.918C68.1896 106.322 71.1498 111.99 72.7801 118.075C74.1547 123.169 74.4872 129.109 73.1573 134.459Z" fill="#E4AA07"/>
<path d="M73.1573 134.459C72.6459 137.779 71.348 140.948 69.0112 143.659C65.5811 147.643 60.5335 150.426 55.8279 152.677C50.8443 155.063 45.5345 156.808 40.0457 157.581C30.4556 158.932 20.5522 157.057 12.6882 151.313C9.14307 148.725 6.09021 145.455 3.99955 141.602C1.56046 137.101 0.758071 132.076 0.591842 127.023C0.403235 121.203 0.43521 115.143 1.99841 109.487C3.49767 104.065 6.40668 99.1791 8.41102 93.943C9.05676 92.2544 9.54905 90.5501 9.92946 88.8299C9.78881 88.8047 9.65774 88.6784 9.68331 88.4922C11.0803 78.8406 9.47553 69.1511 9.67053 59.4678C9.73446 56.1665 9.95823 52.3285 10.8853 48.781C11.0547 46.5811 11.5022 44.3907 12.4069 42.3802C14.2322 38.3339 18.2026 34.9978 22.8858 35.1399C27.7799 35.2851 30.999 39.3944 33.1728 43.2671C34.3076 45.2934 35.3018 47.3922 36.1777 49.5384C37.3733 51.9308 38.3035 54.4842 39.0707 57.0628C39.9466 58.9376 40.7586 60.8439 41.529 62.7629C43.1242 66.7366 44.5403 70.7796 45.9948 74.8101C48.7248 77.8432 51.3621 80.9489 53.846 84.2534C57.8674 89.5969 61.5756 95.1739 64.9865 100.918C68.1896 106.322 71.1498 111.99 72.7801 118.075C74.1547 123.169 74.4872 129.109 73.1573 134.459Z" fill="url(#pattern0)" fill-opacity="0.4"/>
<path d="M45.6459 20.6556C44.1364 22.6068 42.4859 24.4318 40.6423 26.0775C39.7541 26.8713 38.8256 27.6236 37.8652 28.331C36.9854 28.9786 36.0418 29.6362 34.9219 29.7574C33.8641 29.8753 32.8852 29.4469 31.8963 29.148C30.3079 28.6697 29.0587 29.0766 27.608 29.7541C26.3655 30.3337 25.1818 31.0295 24.0082 31.7336C22.9285 32.3812 21.7347 33.0455 21.2377 34.2577C21.2159 34.3109 21.184 34.3507 21.1471 34.3839C21.1169 34.447 21.0866 34.5135 21.0564 34.5799C21.503 35.9615 21.9564 37.3465 22.1612 38.7812C22.2284 39.2363 21.6273 39.4156 21.4594 38.9722C20.8365 37.3299 20.4436 35.6028 19.9684 33.9123C19.7199 33.0338 19.4983 32.1072 19.1658 31.2553C18.8115 30.342 18.2424 29.9584 17.4314 29.4403C14.5434 27.5937 11.3634 25.865 8.78604 23.6015C8.56441 23.4056 8.84816 23.1233 9.07819 23.2262C10.8546 24.0233 12.4917 25.1525 14.1287 26.1971C15.6802 27.1901 17.3542 28.1035 18.8233 29.2161C18.8267 29.1829 18.8334 29.148 18.8367 29.1164C18.2138 26.6222 17.7017 24.0947 17.1443 21.5872C16.612 19.2059 15.8917 16.7349 16.1956 14.2738C16.5079 11.7497 17.7269 9.38497 18.8837 7.15143C20.1145 4.77343 21.4644 2.46019 22.8211 0.153586C22.9806 -0.117095 23.4423 -0.00915674 23.4289 0.314664C23.3298 2.74581 23.2207 5.19357 22.7338 7.58486C22.2519 9.94294 21.0447 12.0802 20.5913 14.4316C20.096 17.0122 20.7038 19.6958 20.4402 22.3062C20.1967 24.7075 19.8156 27.0988 19.4647 29.4868C19.4966 29.6528 19.5285 29.8156 19.5587 29.9816C19.5604 29.9933 19.5604 30.0032 19.5604 30.0132C20.1749 30.9714 20.3277 32.2451 20.6518 33.3128C20.6954 33.459 20.7424 33.6051 20.7894 33.7512C21.3922 31.9345 22.3392 30.1709 23.758 28.8823C25.301 27.4791 27.2705 26.6405 29.24 26.0094C31.8022 25.1891 34.44 24.583 37.0391 23.8872C39.9321 23.11 42.543 21.559 45.2009 20.2205C45.4612 20.091 45.8574 20.3799 45.6459 20.6556Z" fill="#485114"/>
<path d="M45.6459 20.6556C44.1364 22.6068 42.4859 24.4318 40.6423 26.0775C39.7541 26.8713 38.8256 27.6236 37.8652 28.331C36.9854 28.9786 36.0418 29.6362 34.9219 29.7574C33.8641 29.8753 32.8852 29.4469 31.8963 29.148C30.3079 28.6697 29.0587 29.0766 27.608 29.7541C26.3655 30.3337 25.1818 31.0295 24.0082 31.7336C22.9285 32.3812 21.7347 33.0455 21.2377 34.2577C21.2159 34.3109 21.184 34.3507 21.1471 34.3839C21.1169 34.447 21.0866 34.5135 21.0564 34.5799C21.503 35.9615 21.9564 37.3465 22.1612 38.7812C22.2284 39.2363 21.6273 39.4156 21.4594 38.9722C20.8365 37.3299 20.4436 35.6028 19.9684 33.9123C19.7199 33.0338 19.4983 32.1072 19.1658 31.2553C18.8115 30.342 18.2424 29.9584 17.4314 29.4403C14.5434 27.5937 11.3634 25.865 8.78604 23.6015C8.56441 23.4056 8.84816 23.1233 9.07819 23.2262C10.8546 24.0233 12.4917 25.1525 14.1287 26.1971C15.6802 27.1901 17.3542 28.1035 18.8233 29.2161C18.8267 29.1829 18.8334 29.148 18.8367 29.1164C18.2138 26.6222 17.7017 24.0947 17.1443 21.5872C16.612 19.2059 15.8917 16.7349 16.1956 14.2738C16.5079 11.7497 17.7269 9.38497 18.8837 7.15143C20.1145 4.77343 21.4644 2.46019 22.8211 0.153586C22.9806 -0.117095 23.4423 -0.00915674 23.4289 0.314664C23.3298 2.74581 23.2207 5.19357 22.7338 7.58486C22.2519 9.94294 21.0447 12.0802 20.5913 14.4316C20.096 17.0122 20.7038 19.6958 20.4402 22.3062C20.1967 24.7075 19.8156 27.0988 19.4647 29.4868C19.4966 29.6528 19.5285 29.8156 19.5587 29.9816C19.5604 29.9933 19.5604 30.0032 19.5604 30.0132C20.1749 30.9714 20.3277 32.2451 20.6518 33.3128C20.6954 33.459 20.7424 33.6051 20.7894 33.7512C21.3922 31.9345 22.3392 30.1709 23.758 28.8823C25.301 27.4791 27.2705 26.6405 29.24 26.0094C31.8022 25.1891 34.44 24.583 37.0391 23.8872C39.9321 23.11 42.543 21.559 45.2009 20.2205C45.4612 20.091 45.8574 20.3799 45.6459 20.6556Z" fill="url(#pattern1)" fill-opacity="0.4"/>
</g>
<defs>
<pattern id="pattern0" patternContentUnits="objectBoundingBox" width="1" height="1">
<use xlink:href="#image0" transform="matrix(0.000595405 0.000139775 -0.000166434 0.000691009 -0.335622 -0.291602)"/>
</pattern>
<pattern id="pattern1" patternContentUnits="objectBoundingBox" width="1" height="1">
<use xlink:href="#image0" transform="matrix(0.000595405 0.000139775 -0.000166434 0.000691009 -0.335622 -0.291602)"/>
</pattern>
<clipPath id="clip0">
<rect width="74" height="158" fill="white"/>
</clipPath>
</defs>
</svg>
