<svg width="48" height="15" viewBox="0 0 48 15" fill="none" xmlns="http://www.w3.org/2000/svg">
<path d="M44.6283 6.65626L0.398467 6.65625C0.17931 6.65625 0 6.74062 0 6.84375V8.15625C0 8.25938 0.17931 8.34375 0.398467 8.34375H44.6283C44.6283 8.34375 46.2222 8.34375 46.2222 8.25001V6.75001C46.2222 6.65624 44.8475 6.65626 44.6283 6.65626Z" fill="white"/>
<path d="M35.5556 13.3115V14.8414C35.5556 14.974 35.7569 15.0472 35.8928 14.966L47.6784 7.99774C47.7785 7.93879 47.8596 7.8633 47.9153 7.77704C47.971 7.69078 48 7.59603 48 7.5C48 7.40397 47.971 7.30922 47.9153 7.22296C47.8596 7.1367 47.7785 7.06121 47.6784 7.00226L35.8928 0.0339642C35.7542 -0.0471783 35.5556 0.0260477 35.5556 0.158645V1.68847C35.5556 1.78544 35.6157 1.87846 35.715 1.93783L45.1268 7.49901L35.715 13.0622C35.6157 13.1215 35.5556 13.2146 35.5556 13.3115Z" fill="white"/>
</svg>
