<svg width="46" height="46" viewBox="0 0 46 46" fill="none" xmlns="http://www.w3.org/2000/svg">
<path d="M5.55492 0H6.79816C9.26701 0 13.1731 3.38022 18.5164 10.1407L22.5371 13.9468C30.9312 4.84831 36.0717 0.299054 37.9586 0.299054H39.8102C42.5965 0.299054 44.6598 2.21119 46 6.03546V6.987C44.7656 10.7569 39.6163 16.2486 30.552 23.4622C38.1702 31.9807 41.9793 36.7384 41.9793 37.7352C42.1909 38.8589 42.2967 39.4933 42.2967 39.6383C41.415 43.8794 39.0431 46 35.1811 46C32.5007 46 29.4146 43.0366 25.9229 37.1099L21.9287 32.6785C16.3032 40.1095 12.9086 44.1241 11.7447 44.7222L9.57562 45.0485H9.25819C5.36094 44.3416 3.41231 42.4385 3.41231 39.3392V38.0615C3.41231 35.8322 6.90397 30.866 13.8873 23.1631C13.7638 22.8006 9.44336 18.3601 0.925819 9.84161C0.308607 9.026 0 8.07447 0 6.987V5.70922C0.793559 1.90307 2.6452 0 5.55492 0Z" fill="white"/>
</svg>
