<svg width="180" height="120" viewBox="0 0 180 120" fill="none" xmlns="http://www.w3.org/2000/svg">
<path d="M26.1863 75.853C26.1863 75.5067 26.1863 75.1604 26.1863 74.814C26.1863 60.902 26.1831 46.9901 26.1895 33.0781C26.1895 29.5952 28.0997 26.7788 31.0801 25.815C35.7406 24.312 40.3214 27.6838 40.3981 32.7023C40.4364 35.2344 40.4076 37.7666 40.4076 40.2987C40.4076 45.8269 40.4076 51.3518 40.4076 56.88C40.4076 57.1708 40.4076 57.4583 40.4076 57.9256C42.4392 55.2725 44.8893 53.982 48.0198 54.7825C50.6648 55.4588 52.0575 57.3571 52.2907 60.425C53.8559 57.6217 55.9067 56.3246 58.8583 57.2852C61.4649 58.1347 62.7842 60.0297 62.9279 62.6435C64.1961 62.3821 65.4387 62.0227 66.7069 61.8822C68.9525 61.6306 70.8244 62.5585 72.3545 64.1758C74.2264 66.1493 75.0026 68.6585 75.4818 71.2854C76.3091 75.8171 76.0025 80.3422 75.3125 84.8511C74.2008 92.1076 72.067 99.0277 68.5916 105.477C67.2627 107.941 65.7166 110.247 63.6275 112.129C63.1611 112.551 62.6883 112.727 62.0559 112.724C52.0223 112.704 41.9856 112.701 31.9521 112.727C31.2142 112.731 30.7446 112.508 30.2719 111.933C25.1737 105.706 21.0018 98.8578 17.2293 91.7417C13.9678 85.596 11.013 79.2967 8.48629 72.7981C7.95922 71.4455 7.55673 70.0079 7.32674 68.5736C6.85716 65.6036 8.22433 63.2251 11.1376 61.6078C14.0125 60.0101 16.4914 60.2943 18.7179 62.7579C19.8583 64.019 20.7974 65.5154 21.6088 67.0281C23.0366 69.6975 24.2984 72.4616 25.6305 75.1832C25.7455 75.4185 25.8732 75.6505 25.9946 75.8857C26.0617 75.8726 26.1224 75.8628 26.1863 75.853Z" fill="#52461A"/>
<path fill-rule="evenodd" clip-rule="evenodd" d="M35.2763 11.8182C28.0889 11.8182 21.1898 14.7801 16.0985 20.0622C11.0063 25.3452 8.14059 32.5166 8.14059 40H6.33154C6.33154 32.0527 9.37432 24.4252 14.7992 18.7971C20.225 13.168 27.5902 10 35.2763 10C42.9623 10 50.3275 13.168 55.7533 18.7971C61.1782 24.4252 64.221 32.0526 64.221 40H62.4119C62.4119 32.5166 59.5463 25.3452 54.454 20.0622C49.3627 14.7801 42.4637 11.8182 35.2763 11.8182Z" fill="#52461A"/>
<path d="M78.6934 24.5454H104.02V26.3636H78.6934V24.5454Z" fill="#52461A"/>
<path d="M111.256 24.5454H122.11V26.3636H111.256V24.5454Z" fill="#52461A"/>
<path d="M129.347 24.5454H172.764V26.3636H129.347V24.5454Z" fill="#52461A"/>
<path fill-rule="evenodd" clip-rule="evenodd" d="M159.856 10.2874L174.003 25.4546L159.856 40.6218L158.536 39.3783L171.524 25.4546L158.536 11.5309L159.856 10.2874Z" fill="#52461A"/>
</svg>
