<svg width="88" height="80" viewBox="0 0 88 80" fill="none" xmlns="http://www.w3.org/2000/svg">
<g clip-path="url(#clip0)">
<path d="M5.625 0C2.54664 0 0 2.51539 0 5.59375V74.375C0 77.4534 2.54664 80 5.625 80H37.875C40.9534 80 43.5 77.4534 43.5 74.375V40.1875H82.4062C83.3145 40.1875 84 40.8418 84 41.7812V44.125H81.0312C78.7318 44.125 76.8125 46.0512 76.8125 48.3438V67.8125C76.8125 70.105 78.7317 72.0312 81.0312 72.0312H84V74.375C84 75.3147 83.3145 76 82.4062 76H48.1562C47.8912 75.9963 47.6281 76.0452 47.3822 76.1441C47.1362 76.2429 46.9124 76.3896 46.7237 76.5757C46.5349 76.7618 46.3851 76.9835 46.2828 77.228C46.1805 77.4725 46.1278 77.735 46.1278 78C46.1278 78.265 46.1805 78.5275 46.2828 78.772C46.3851 79.0165 46.5349 79.2382 46.7237 79.4243C46.9124 79.6104 47.1362 79.7571 47.3822 79.8559C47.6281 79.9548 47.8912 80.0037 48.1562 80H82.4062C85.4776 80 88 77.4453 88 74.375V41.7812C88 38.7111 85.4776 36.1875 82.4062 36.1875H43.5V5.59375C43.5 2.51539 40.9534 0 37.875 0H5.625ZM5.625 4H7.90625V7C7.90625 9.29253 9.79423 11.2188 12.0938 11.2188H31.4062C33.7058 11.2188 35.5938 9.29253 35.5938 7V4H37.875C38.8065 4 39.5 4.6622 39.5 5.59375V74.375C39.5 75.3065 38.8065 76 37.875 76H5.625C4.69345 76 4 75.3065 4 74.375V5.59375C4 4.6622 4.69345 4 5.625 4ZM11.9062 4H31.5938V7C31.5938 7.16519 31.5459 7.21875 31.4062 7.21875H12.0938C11.9542 7.21875 11.9062 7.16515 11.9062 7V4ZM52.8125 5.0625C52.5498 5.07476 52.2921 5.13865 52.0541 5.25051C51.8162 5.36237 51.6025 5.52002 51.4255 5.71445C51.2484 5.90888 51.1114 6.13628 51.0222 6.38367C50.9331 6.63106 50.8935 6.89359 50.9058 7.15627C50.9182 7.41895 50.9821 7.67663 51.094 7.91459C51.2059 8.15256 51.3636 8.36614 51.5581 8.54316C51.7525 8.72017 51.98 8.85715 52.2274 8.94626C52.4748 9.03537 52.7373 9.07487 53 9.0625C63.1414 9.0625 72.293 15.489 76.1875 24.4688L67.8438 22.4688C67.3258 22.3444 66.7796 22.431 66.3254 22.7094C65.8712 22.9877 65.5462 23.4351 65.4219 23.9531C65.2976 24.4711 65.3841 25.0173 65.6625 25.4715C65.9408 25.9257 66.3883 26.2507 66.9062 26.375L79.125 29.2812C79.6216 29.3981 80.144 29.3209 80.5855 29.0653C81.027 28.8097 81.3541 28.3951 81.5 27.9062L85.0938 16.3438C85.2029 16.0217 85.2281 15.6772 85.1671 15.3427C85.1061 15.0083 84.9608 14.6949 84.745 14.4321C84.5292 14.1694 84.25 13.966 83.9337 13.8412C83.6174 13.7164 83.2746 13.6742 82.9375 13.7188C82.5458 13.7653 82.1767 13.9266 81.8764 14.1823C81.5761 14.4381 81.3582 14.777 81.25 15.1562L79.25 21.625C74.4573 11.8586 64.3339 5.0625 53 5.0625C52.9375 5.05957 52.875 5.05957 52.8125 5.0625ZM81.0312 48.125H84V68.0312H81.0312C80.8916 68.0312 80.8125 67.9782 80.8125 67.8125V48.3438C80.8125 48.1785 80.8915 48.125 81.0312 48.125ZM15.4688 70.1875C15.2037 70.1838 14.9406 70.2327 14.6947 70.3316C14.4487 70.4304 14.2249 70.5771 14.0362 70.7632C13.8474 70.9493 13.6976 71.171 13.5953 71.4155C13.493 71.66 13.4403 71.9225 13.4403 72.1875C13.4403 72.4525 13.493 72.715 13.5953 72.9595C13.6976 73.204 13.8474 73.4257 14.0362 73.6118C14.2249 73.7979 14.4487 73.9446 14.6947 74.0434C14.9406 74.1423 15.2037 74.1912 15.4688 74.1875H28.0625C28.3275 74.1912 28.5906 74.1423 28.8366 74.0434C29.0825 73.9446 29.3064 73.7979 29.4951 73.6118C29.6838 73.4257 29.8337 73.204 29.936 72.9595C30.0383 72.715 30.091 72.4525 30.091 72.1875C30.091 71.9225 30.0383 71.66 29.936 71.4155C29.8337 71.171 29.6838 70.9493 29.4951 70.7632C29.3064 70.5771 29.0825 70.4304 28.8366 70.3316C28.5906 70.2327 28.3275 70.1838 28.0625 70.1875H15.4688Z" fill="white"/>
</g>
<defs>
<clipPath id="clip0">
<rect width="88" height="80" fill="white"/>
</clipPath>
</defs>
</svg>
