<svg width="24" height="24" viewBox="0 0 24 24" fill="none" xmlns="http://www.w3.org/2000/svg">
<path d="M24 11.996C24 18.6217 18.6175 24.0067 12.001 24C5.36043 23.9933 -0.00334786 18.6117 1.56782e-06 11.9598C0.00402088 5.37228 5.41133 -0.011371 12.0117 1.80367e-05C18.6376 0.011407 24 5.37697 24 11.996ZM6.13548 19.5864C9.67717 22.3901 15.1642 22.3821 18.7454 18.8414C22.3822 15.2459 22.4197 9.69005 19.5988 6.1474C15.1146 10.6239 10.6284 15.1018 6.13548 19.5864ZM17.8598 4.40288C14.1373 1.4471 8.21615 1.63937 4.69523 5.76621C1.36389 9.66996 1.99358 14.9471 4.43063 17.8586C8.90546 13.3754 13.3796 8.89216 17.8598 4.40288Z" fill="#14110E" fill-opacity="0.6"/>
</svg>
