<svg width="24" height="24" viewBox="0 0 24 24" fill="none" xmlns="http://www.w3.org/2000/svg">
<path d="M18.4282 21.5648C14.1284 21.5648 9.8575 21.5648 5.58587 21.5648C5.57719 21.539 5.56634 21.5226 5.56634 21.5068C5.57285 20.5293 5.51571 19.5461 5.60034 18.5751C5.8094 16.185 7.02398 14.4318 9.19921 13.3556C9.57248 13.171 9.98192 13.0493 10.3848 12.9341C10.9498 12.7724 11.2717 12.4525 11.2696 11.9967C11.2674 11.543 10.9484 11.221 10.3754 11.07C8.33115 10.5312 6.89448 9.28894 6.05607 7.37475C5.71969 6.60621 5.56851 5.79259 5.56417 4.95535C5.55983 4.18038 5.56344 3.40468 5.56344 2.6297C5.56344 2.57103 5.56344 2.51234 5.56344 2.44006C9.85387 2.44006 14.1306 2.44006 18.4022 2.44006C18.4123 2.45867 18.4225 2.46869 18.4217 2.47871C18.4167 3.45047 18.4608 4.4251 18.3942 5.39257C18.2611 7.32966 17.3583 8.87462 15.7944 10.0389C15.1325 10.5312 14.3932 10.874 13.5895 11.0729C13.3073 11.143 13.0549 11.2525 12.8849 11.5015C12.5615 11.9767 12.7474 12.6042 13.2878 12.8289C13.4311 12.8883 13.5851 12.9227 13.7363 12.9627C16.2031 13.6161 18.0644 15.7149 18.3581 18.2266C18.4347 18.8813 18.4123 19.5476 18.4261 20.208C18.4355 20.6546 18.4282 21.1011 18.4282 21.5648Z" fill="#14110E" fill-opacity="0.6"/>
<path d="M11.9951 0.00214885C14.6825 0.00214885 17.3699 0.00357793 20.0573 0C20.3467 0 20.61 0.0515193 20.8154 0.265479C21.0527 0.51164 21.1591 0.803591 21.0448 1.13419C20.916 1.50701 20.6295 1.70595 20.2411 1.76463C20.176 1.77464 20.1087 1.77465 20.0429 1.77465C14.6558 1.77537 9.2694 1.77392 3.88231 1.77679C3.5047 1.77679 3.21824 1.6351 3.02509 1.31524C2.70753 0.787851 3.07791 0.0694055 3.69785 0.0114431C3.79985 0.00214047 3.90257 0.00214885 4.00457 0.00214885C6.66809 0.00143327 9.33162 0.00214885 11.9951 0.00214885Z" fill="#14110E" fill-opacity="0.6"/>
<path d="M12.0147 22.2597C14.7021 22.2597 17.3895 22.2612 20.0769 22.2576C20.4155 22.2569 20.7056 22.3391 20.9161 22.6196C21.1049 22.8715 21.1425 23.1456 21.0202 23.429C20.8864 23.7388 20.6513 23.9392 20.3034 23.9871C20.226 23.9979 20.1471 23.9972 20.069 23.9972C14.7 23.9979 9.33095 23.9964 3.96194 24C3.60603 24 3.31089 23.9034 3.10328 23.605C2.91809 23.3388 2.88048 23.0533 3.01937 22.7592C3.16622 22.4465 3.41796 22.2697 3.7717 22.2626C4.16956 22.2554 4.56671 22.2583 4.96457 22.2583C7.31415 22.2597 9.66444 22.2597 12.0147 22.2597Z" fill="#14110E" fill-opacity="0.6"/>
</svg>
