<svg width="42" height="64" viewBox="0 0 42 64" fill="none" xmlns="http://www.w3.org/2000/svg">
<g clip-path="url(#clip0)">
<path d="M18.0676 31.9896C17.136 30.6978 16.2025 29.4023 15.269 28.1087C10.5489 21.57 5.82307 15.0351 1.10857 8.49269C-1.23457 5.24189 0.425386 0.940235 4.3325 0.126609C4.7729 0.0357947 5.23588 0.006142 5.68757 0.006142C15.8958 -0.00127145 26.1039 -0.00127224 36.3121 0.00243448C39.1277 0.00243448 41.2299 1.57409 41.8547 4.15211C42.2481 5.77566 41.819 7.22869 40.8535 8.56311C37.8272 12.748 34.8046 16.9366 31.782 21.1233C29.2394 24.6447 26.6987 28.1643 24.1579 31.6857C24.0864 31.7857 24.0186 31.8895 23.9377 32.0081C25.4001 34.0339 26.8624 36.0577 28.3229 38.0816C32.4991 43.8659 36.6528 49.6651 40.8591 55.4272C42.9821 58.3333 41.8472 61.7694 39.4118 63.215C38.4821 63.7673 37.4733 63.9935 36.4081 63.9935C26.1209 63.999 15.8355 64.0064 5.5483 63.9897C2.68007 63.986 0.596653 62.2754 0.084738 59.538C-0.19004 58.0683 0.21836 56.7301 1.09351 55.5199C3.65685 51.9763 6.21642 48.4289 8.776 44.8834C11.7986 40.6967 14.8211 36.5081 17.8437 32.3214C17.9171 32.2213 17.9829 32.1156 18.0676 31.9896ZM20.998 28.6962C21.1523 28.4942 21.2577 28.3607 21.3574 28.2236C24.3348 24.1369 27.3141 20.0502 30.2915 15.9617C32.6478 12.7276 35.006 9.4935 37.3623 6.25753C37.7726 5.69411 37.7594 5.22706 37.3491 4.79337C37.0442 4.47089 36.649 4.49127 36.2575 4.49127C26.0945 4.49127 15.9334 4.49128 5.77038 4.49313C5.56712 4.49313 5.36009 4.49127 5.1606 4.52649C4.59975 4.62657 4.2384 5.23262 4.43789 5.75898C4.51694 5.97212 4.65057 6.16857 4.78607 6.35576C9.24839 12.5089 13.7126 18.6584 18.1787 24.8097C19.1046 26.0885 20.0325 27.3655 20.998 28.6962Z" fill="white"/>
</g>
<defs>
<clipPath id="clip0">
<rect width="42" height="64" fill="white"/>
</clipPath>
</defs>
</svg>
