<svg width="67" height="64" viewBox="0 0 67 64" fill="none" xmlns="http://www.w3.org/2000/svg">
<g clip-path="url(#clip0)">
<path d="M19.4439 3.36371C24.5894 0.959004 29.8776 -0.22074 35.5624 0.859499C40.2248 1.74545 44.0472 4.04993 47.4312 7.08702C50.9111 10.2101 53.5748 13.9186 55.8449 17.8931C58.4675 22.4857 60.5069 27.2955 61.6742 32.4178C62.4981 36.0312 62.8551 39.6806 62.3161 43.3672C61.3095 50.2526 57.5795 55.4447 51.3084 59.0234C50.5853 59.4363 49.8337 59.8032 49.0934 60.1887C48.9826 60.2465 48.8609 60.2845 48.7196 60.3421C48.6916 60.2433 48.6569 60.1622 48.646 60.0777C47.4658 51.094 43.8932 43.0623 38.0014 35.9683C35.9128 33.4536 33.7619 30.9861 31.6165 28.5149C28.5971 25.037 26.4942 21.105 25.0957 16.8106C24.3552 14.536 23.593 12.2669 22.7965 10.0092C21.9763 7.68659 20.9127 5.46836 19.4439 3.36371Z" fill="white"/>
<path d="M18.2799 3.87997C19.1592 5.70304 19.7913 7.51927 20.1607 9.40162C20.6539 11.9156 21.0921 14.4411 21.4851 16.9714C22.3449 22.5014 24.3317 27.6121 27.6917 32.2083C30.7954 36.4552 33.3192 41.0343 36.1711 45.4252C39.3146 50.2649 42.4566 55.1061 45.5961 59.9478C45.8524 60.3436 46.0877 60.7519 46.3748 61.2236C45.7005 61.4452 45.0668 61.6682 44.4235 61.8625C39.4085 63.3751 34.3594 63.5303 29.2944 62.1973C24.3406 60.8939 20.1774 58.3297 16.5396 54.9501C12.832 51.5062 10.0646 47.4451 7.90551 43.0002C5.56362 38.1794 4.15227 33.1278 4.01858 27.7886C3.90743 23.3703 4.73974 19.1249 6.78971 15.1205C8.91259 10.973 12.0695 7.68545 16.12 5.15384C16.8085 4.72214 17.5225 4.32487 18.2799 3.87997Z" fill="white"/>
</g>
<defs>
<clipPath id="clip0">
<rect width="67" height="64" fill="white"/>
</clipPath>
</defs>
</svg>
