<svg width="82" height="88" viewBox="0 0 82 88" fill="none" xmlns="http://www.w3.org/2000/svg">
<path d="M61.1806 55.6221C50.4502 72.7003 37.5828 80.3577 28.7581 75.5377L28.8166 75.4384C23.9666 71.8724 24.101 57.1923 35.8487 42.4574C47.5965 27.7225 71.1422 14.3913 71.1422 14.3913L71.18 14.3817C72.266 18.6352 71.7573 38.7959 61.1806 55.6221Z" fill="#DE8D5F"/>
<path d="M35.8646 42.4767C24.1148 57.2134 23.9825 71.8911 28.8309 75.4614L28.7724 75.5607C27.9915 75.1422 27.2526 74.6252 26.5413 74.0065C24.9499 72.6199 23.515 71.0583 22.3117 69.3396C17.2747 60.6176 23.1352 44.4065 34.0498 33.6614C45.3561 22.5326 70.8098 13.6096 70.8098 13.6096C70.9506 13.6884 71.0825 13.9553 71.1934 14.4031L71.1557 14.4127C71.158 14.4087 47.6145 27.74 35.8646 42.4767Z" fill="#B67349"/>
<path d="M70.8179 13.6129C70.8179 13.6129 45.367 22.5351 34.062 33.663C23.1447 44.4049 17.2889 60.6173 22.3254 69.3387C16.8924 61.5727 16.1367 50.5496 26.4582 37.6842C39.0656 21.9528 67.1145 11.5705 70.8179 13.6129Z" fill="#A36139"/>
<path d="M66.8745 17.87C65.5387 16.5503 40.4177 32.5844 40.7186 33.8813C41.0259 35.1767 62.6692 21.2356 63.8987 20.4457C64.9487 19.7794 66.8745 17.87 66.8745 17.87Z" fill="#A36139"/>
<path d="M58.5475 27.3173C48.6414 33.0446 39.0921 41.6933 34.2129 48.3998C29.3336 55.1064 24.5446 68.2234 25.2679 69.322C25.9912 70.4207 30.9801 54.1187 38.1461 46.0549C45.3167 37.9832 58.5475 27.3173 58.5475 27.3173Z" fill="#A36139"/>
<path d="M68.6029 23.8066C69.0651 26.8124 60.5664 48.9678 59.7798 49.7495C58.9908 50.5352 62.8443 38.6163 64.0654 34.1237C65.2842 29.6351 68.6029 23.8066 68.6029 23.8066Z" fill="#A36139"/>
<path d="M58.5601 34.0148C59.2946 34.4217 58.0198 41.6874 52.2539 49.9815C46.484 58.2733 37.5933 64.2751 36.9448 63.7585C36.2939 63.2458 44.3858 57.1373 50.0053 49.2554C55.6249 41.3735 58.5601 34.0148 58.5601 34.0148Z" fill="#A36139"/>
<path d="M50.791 62.4043C47.3753 66.5639 40.3966 73.7158 32.6453 72.8664C31.3062 72.3342 38.4615 71.4793 42.7053 68.5022C46.9531 65.5275 50.791 62.4043 50.791 62.4043Z" fill="#A36139"/>
<path d="M47.2181 43.1875C43.8874 45.6624 36.4011 54.3591 32.545 62.227C32.1374 64.5467 37.107 56.1514 40.1655 52.2294C43.2264 48.3035 47.2181 43.1875 47.2181 43.1875Z" fill="#A36139"/>
</svg>
