<svg width="72" height="72" viewBox="0 0 72 72" fill="none" xmlns="http://www.w3.org/2000/svg">
<path d="M72 36.0007C72 43.7804 69.5328 50.9849 65.3356 56.8719C62.9385 60.2395 59.9753 63.1721 56.5815 65.5378C50.7467 69.6119 43.6525 72 35.9996 72C35.2752 72 34.5553 71.9784 33.8443 71.9343C28.5235 71.6225 23.5138 70.1521 19.0622 67.7722C12.1083 64.0584 6.51893 58.1312 3.23111 50.9267C1.36078 46.8265 0.23724 42.313 0.0350619 37.5629C0.0134266 37.0452 0 36.5222 0 36C0 28.2643 2.44106 21.0994 6.59429 15.2296C9.26363 11.4539 12.6395 8.21834 16.5383 5.71166C22.1493 2.09861 28.8309 0 36.0004 0C37.0232 0 38.0415 0.0440132 39.0427 0.127569C42.7834 0.439413 46.3659 1.32646 49.6933 2.69991C58.2981 6.23836 65.2259 13.0168 68.9666 21.5164C70.4415 24.8706 71.4248 28.4971 71.8112 32.2944C71.9343 33.5112 72 34.7496 72 36.0007Z" fill="url(#paint0_radial)"/>
<path d="M35.7805 35.7808C31.39 30.5123 22.6098 31.3904 16.0245 30.5123C9.43914 29.6342 8.99973 19.5366 8.56105 16.4637C8.40289 15.3707 7.58672 15.1111 6.59448 15.2297C9.26383 11.454 12.6397 8.21846 16.5385 5.71178C16.8899 7.77084 16.17 11.0198 15.1471 13.8294C13.3909 18.6585 16.4639 20.8541 21.2938 23.0489C26.1222 25.2445 35.3411 31.3911 35.7805 35.7808Z" fill="url(#paint1_linear)"/>
<path d="M49.6933 2.70081C49.3643 4.83 47.2127 6.91518 44.5612 7.24492C41.0489 7.68359 37.9759 10.3179 39.2927 16.4645C40.693 25.5653 37.905 32.7124 36.7203 35.237C36.6897 35.3026 36.6591 35.3645 36.6278 35.4257C36.5972 35.4914 36.5666 35.5578 36.5398 35.6145C36.5308 35.6234 36.5263 35.6324 36.5219 35.6406C36.3331 36.0225 36.219 36.2202 36.219 36.2202C36.2846 36.0404 36.3376 35.8517 36.3816 35.6495C36.3905 35.61 36.3995 35.5704 36.4077 35.5264C36.4122 35.4914 36.4211 35.4518 36.4256 35.4123C36.4301 35.4033 36.4301 35.3944 36.4301 35.3862C37.2821 30.1751 31.3421 19.5769 30.5117 12.5134C29.6336 5.05008 36.219 4.172 38.4138 2.41583C39.1517 1.82348 39.2434 0.984931 39.0412 0.128481C42.7827 0.439578 46.3652 1.32661 49.6933 2.70081Z" fill="url(#paint2_linear)"/>
<path d="M71.811 32.2949C66.9818 25.3411 58.3374 23.7998 55.536 27.0003C52.7085 30.2314 42.0886 34.2003 36.9827 35.5044C36.829 35.5439 36.6798 35.579 36.5395 35.614C36.5261 35.614 36.5134 35.6185 36.5044 35.623C36.4604 35.6319 36.4209 35.6409 36.3813 35.6491C36.3202 35.667 36.2582 35.6797 36.2015 35.6931C36.1404 35.7066 36.0784 35.7192 36.0217 35.7327C35.9382 35.7506 35.8591 35.7632 35.78 35.7811C35.8807 35.7237 35.9822 35.667 36.0829 35.614C36.1269 35.5879 36.171 35.5611 36.2105 35.5439C36.2105 35.5394 36.2105 35.5394 36.2105 35.5394C36.2545 35.5133 36.2985 35.4865 36.3425 35.4648C36.3731 35.4469 36.4 35.4298 36.4261 35.4119C36.4395 35.4074 36.4522 35.3984 36.4612 35.3902C36.5492 35.3417 36.632 35.2895 36.72 35.2365C45.733 29.6875 50.0623 17.7375 56.8535 16.464C60.6904 15.7441 65.445 18.6939 68.9663 21.5169C70.4413 24.8711 71.4245 28.4976 71.811 32.2949Z" fill="url(#paint3_linear)"/>
<path d="M65.3354 56.8718C62.9383 60.2394 59.975 63.1721 56.5813 65.5378C55.589 63.654 54.7199 60.5595 55.5368 57.2926C56.8536 52.0241 55.5368 49.3906 50.7077 46.7563C44.8818 43.6483 38.0286 37.1063 36.5224 35.6403C36.5134 35.6314 36.5089 35.6269 36.5045 35.6224C36.4694 35.5874 36.4343 35.5568 36.4082 35.5262C36.3821 35.5046 36.3597 35.4822 36.3426 35.465C36.2635 35.386 36.2195 35.3419 36.2195 35.3419C36.2195 35.3419 36.2896 35.3554 36.4299 35.386C36.4388 35.386 36.4478 35.3904 36.4605 35.3904C36.5089 35.4039 36.5656 35.4121 36.6276 35.4255C36.7283 35.4471 36.8469 35.474 36.9834 35.5046C36.9834 35.5046 36.9834 35.5046 36.9879 35.5046C39.0074 35.9395 44.9079 37.2742 53.3419 39.7324C63.8783 42.8053 62.1222 48.9519 62.1222 52.4642C62.1214 54.3689 63.7985 55.8841 65.3354 56.8718Z" fill="url(#paint4_linear)"/>
<path d="M41.0487 63.0005C38.116 67.0306 34.2701 68.3086 33.8441 71.9343C28.5233 71.6225 23.5137 70.152 19.062 67.7722C22.8728 66.8106 30.5205 64.515 31.8291 61.2436C33.5853 56.8532 32.7072 54.219 32.2677 48.9512C31.8858 44.3593 35.1699 37.4398 36.0174 35.7322H36.0218C36.0435 35.6881 36.0614 35.6486 36.0785 35.6135H36.083C36.171 35.4382 36.2188 35.3412 36.2188 35.3412C36.2188 35.3412 36.2143 35.4114 36.2098 35.5389C36.2098 35.5389 36.2098 35.5389 36.2098 35.5434C36.2054 35.5874 36.2009 35.6359 36.2009 35.6926C36.1308 37.1631 35.9547 42.8926 37.0969 46.3169C38.4144 50.2687 44.5603 58.1714 41.0487 63.0005Z" fill="url(#paint5_linear)"/>
<path d="M35.7802 35.7806C33.1459 35.7806 27 41.9272 23.9263 48.0731C21.0898 53.7497 13.3809 57.929 3.23023 50.9267C1.3599 46.8265 0.236358 42.3129 0.0341797 37.5629C3.00195 40.5568 8.14294 45.0002 12.511 45.0002C19.0971 45.0002 25.2438 33.1471 35.7802 35.7806Z" fill="url(#paint6_linear)"/>
<defs>
<radialGradient id="paint0_radial" cx="0" cy="0" r="1" gradientUnits="userSpaceOnUse" gradientTransform="translate(35.9997 36.0006) scale(36.0002 35.9998)">
<stop offset="0.053" stop-color="#FFF8E9"/>
<stop offset="0.5938" stop-color="#F5D2A4"/>
<stop offset="0.7568" stop-color="#FFE4B5"/>
<stop offset="0.8736" stop-color="#EABE91"/>
<stop offset="1" stop-color="#EABE91"/>
</radialGradient>
<linearGradient id="paint1_linear" x1="11.3463" y1="14.1956" x2="35.7911" y2="37.641" gradientUnits="userSpaceOnUse">
<stop stop-color="#EF4927"/>
<stop offset="0.072" stop-color="#C9220A"/>
<stop offset="0.0775" stop-color="#C41D06"/>
<stop offset="0.0919" stop-color="#BD1601"/>
<stop offset="0.1318" stop-color="#BB1400"/>
<stop offset="0.2052" stop-color="#DB2C00"/>
<stop offset="0.2677" stop-color="#DF3208"/>
<stop offset="0.4285" stop-color="#EB431F"/>
<stop offset="0.6282" stop-color="#F65335"/>
<stop offset="0.8215" stop-color="#FD5D42"/>
<stop offset="1" stop-color="#FF6046"/>
</linearGradient>
<linearGradient id="paint2_linear" x1="41.1327" y1="1.4927" x2="35.0497" y2="29.9345" gradientUnits="userSpaceOnUse">
<stop stop-color="#EF4927"/>
<stop offset="0.072" stop-color="#C9220A"/>
<stop offset="0.0775" stop-color="#C41D06"/>
<stop offset="0.0919" stop-color="#BD1601"/>
<stop offset="0.1318" stop-color="#BB1400"/>
<stop offset="0.2052" stop-color="#DB2C00"/>
<stop offset="0.2677" stop-color="#DF3208"/>
<stop offset="0.4285" stop-color="#EB431F"/>
<stop offset="0.6282" stop-color="#F65335"/>
<stop offset="0.8215" stop-color="#FD5D42"/>
<stop offset="1" stop-color="#FF6046"/>
</linearGradient>
<linearGradient id="paint3_linear" x1="66.6835" y1="22.9865" x2="34.7231" y2="39.6071" gradientUnits="userSpaceOnUse">
<stop stop-color="#EF4927"/>
<stop offset="0.072" stop-color="#C9220A"/>
<stop offset="0.0775" stop-color="#C41D06"/>
<stop offset="0.0919" stop-color="#BD1601"/>
<stop offset="0.1318" stop-color="#BB1400"/>
<stop offset="0.2052" stop-color="#DB2C00"/>
<stop offset="0.2677" stop-color="#DF3208"/>
<stop offset="0.4285" stop-color="#EB431F"/>
<stop offset="0.6282" stop-color="#F65335"/>
<stop offset="0.8215" stop-color="#FD5D42"/>
<stop offset="1" stop-color="#FF6046"/>
</linearGradient>
<linearGradient id="paint4_linear" x1="62.962" y1="58.8541" x2="41.8686" y2="38.7838" gradientUnits="userSpaceOnUse">
<stop stop-color="#EF4927"/>
<stop offset="0.1227" stop-color="#C9220A"/>
<stop offset="0.1297" stop-color="#C41D06"/>
<stop offset="0.1481" stop-color="#BD1601"/>
<stop offset="0.199" stop-color="#BB1400"/>
<stop offset="0.3311" stop-color="#DB2C00"/>
<stop offset="0.4308" stop-color="#DF3208"/>
<stop offset="0.5558" stop-color="#EB431F"/>
<stop offset="0.711" stop-color="#F65335"/>
<stop offset="0.8613" stop-color="#FD5D42"/>
<stop offset="1" stop-color="#FF6046"/>
</linearGradient>
<linearGradient id="paint5_linear" x1="29.169" y1="71.2723" x2="36.0285" y2="36.0516" gradientUnits="userSpaceOnUse">
<stop stop-color="#EF4927"/>
<stop offset="0.072" stop-color="#C9220A"/>
<stop offset="0.0844" stop-color="#C41D06"/>
<stop offset="0.1167" stop-color="#BD1601"/>
<stop offset="0.2064" stop-color="#BB1400"/>
<stop offset="0.2816" stop-color="#DB2C00"/>
<stop offset="0.4104" stop-color="#DF3208"/>
<stop offset="0.5399" stop-color="#EB431F"/>
<stop offset="0.7006" stop-color="#F65335"/>
<stop offset="0.8563" stop-color="#FD5D42"/>
<stop offset="1" stop-color="#FF6046"/>
</linearGradient>
<linearGradient id="paint6_linear" x1="2.27652" y1="48.187" x2="35.7055" y2="35.5283" gradientUnits="userSpaceOnUse">
<stop stop-color="#EF4927"/>
<stop offset="0.072" stop-color="#C9220A"/>
<stop offset="0.0775" stop-color="#C41D06"/>
<stop offset="0.0919" stop-color="#BD1601"/>
<stop offset="0.1318" stop-color="#BB1400"/>
<stop offset="0.284" stop-color="#DB2C00"/>
<stop offset="0.3626" stop-color="#DF3208"/>
<stop offset="0.5026" stop-color="#EB431F"/>
<stop offset="0.6764" stop-color="#F65335"/>
<stop offset="0.8447" stop-color="#FD5D42"/>
<stop offset="1" stop-color="#FF6046"/>
</linearGradient>
</defs>
</svg>
