<svg width="81" height="68" viewBox="0 0 81 68" fill="none" xmlns="http://www.w3.org/2000/svg">
<path d="M12.8313 19.0145L36.3308 39.6195L69.9967 18.3824C69.9967 18.3824 54.2859 2.99743 48.1677 -3.05176e-05C48.1677 -3.05176e-05 32.6619 7.43246 12.8313 19.0145Z" fill="#763B2A"/>
<path d="M0.441162 29.8012C0.441162 29.8012 7.04111 23.949 12.8417 19.0144L36.3412 39.6194L34.1788 61.6721C34.1788 61.6721 31.4835 57.6959 0.441162 29.8012Z" fill="#8C503F"/>
<path d="M36.3306 39.6194L69.9965 18.3823C69.9965 18.3823 78.6461 28.3127 80.5011 30.3925L34.1785 61.6722L36.3306 39.6194Z" fill="#441803"/>
<path d="M0.440924 29.8013C0.440924 29.8013 31.7907 58.1038 34.1786 61.6723L32.9795 67.5958C32.9795 67.5958 6.37473 42.0562 0.000244141 36.7342L0.440924 29.8013Z" fill="#753C2B"/>
<path d="M80.5009 30.3928C80.5009 30.3928 36.5764 58.94 34.1783 61.6724L32.9792 67.5959L80.3267 36.4998L80.5009 30.3928Z" fill="#5E2C1E"/>
</svg>
