<svg width="86" height="84" viewBox="0 0 86 84" fill="none" xmlns="http://www.w3.org/2000/svg">
<path d="M18.4318 22.4171C17.6754 23.3466 18.7683 24.457 19.5517 23.5283C20.31 22.572 21.186 21.8365 22.5194 22.1666C32.3362 24.459 53.8007 61.2483 64.8831 71.3491C67.8366 74.0199 70.6222 74.9011 73.5756 71.4418C74.3848 70.516 73.3827 69.6245 72.6023 70.5264C67.9988 75.888 62.9224 64.7411 60.5733 61.0235C50.7467 45.4899 34.0152 21.3635 22.8112 20.2757C20.4771 20.1695 19.5667 21.0095 18.4318 22.4171Z" fill="#6B3F18"/>
<path d="M79.2705 64.7436C79.9778 63.7568 78.8014 62.6947 78.0671 63.6796C77.3599 64.6653 76.6696 64.645 75.3037 64.3925C65.3935 62.6778 35.1036 19.2845 23.4413 9.86073C20.3166 7.36381 17.4929 6.63984 14.7396 10.2716C14.0064 11.2567 15.0381 12.0962 15.7723 11.1123C19.3126 6.50031 27.5347 17.5719 33.3619 25.9581C40.9288 36.8788 63.6552 65.848 75.1426 66.3183C77.4619 66.2637 78.2116 66.2094 79.2705 64.7436Z" fill="#7C5029"/>
<path fill-rule="evenodd" clip-rule="evenodd" d="M69.5659 18.4869C66.7813 27.2167 46.8887 24.3123 45.1357 39.5063C43.6275 28.5002 43.5804 13.4834 27.1503 13.2702C34.5868 18.1882 27.318 35.5852 39.7885 41.9671C29.1287 39.5386 15.8561 35.4553 10.4922 50.2636C17.4203 45.0115 30.9476 57.1417 40.985 48.7941C34.8484 57.5957 26.986 68.0021 38.4115 78.3514C35.903 69.2389 55.101 60.7112 46.8423 46.3033C54.9634 54.0729 64.398 67.2358 77.8958 56.9632C69.2852 57.6231 64.3635 40.3195 51.4737 41.7281C61.3916 37.7026 73.5444 33.2475 69.5659 18.4869ZM45.5229 42.7452C51.0441 43.5704 56.0153 48.9074 56.0153 48.9074C52.458 46.504 48.7814 43.8492 45.0338 43.5962C45.3363 49.1763 40.9722 55.0707 40.9722 55.0707C42.632 51.2047 44.5255 47.1773 44.1294 43.489C39.0728 45.7577 32.0313 43.919 32.0313 43.919C36.2487 44.0443 40.7138 44.2991 43.993 42.55C40.0953 38.5415 39.4195 31.2699 39.4195 31.2699C40.7669 35.3189 42.0656 39.6337 44.8532 42.152C47.6254 37.325 54.4763 34.7778 54.4763 34.7778C50.9736 37.1121 47.2079 39.4652 45.5229 42.7452Z" fill="#D4B88A"/>
<path fill-rule="evenodd" clip-rule="evenodd" d="M43.4304 36.9C45.7537 35.4875 48.5614 35.89 49.738 37.7792C50.9005 39.6314 49.9369 42.3237 47.6492 43.7229C45.3259 45.1355 42.4813 44.7468 41.3552 42.8794C40.1791 40.9915 41.144 38.2987 43.4304 36.9Z" fill="#F0D1A1"/>
</svg>
