<svg width="64" height="64" viewBox="0 0 64 64" fill="none" xmlns="http://www.w3.org/2000/svg">
<circle opacity="0.6" cx="32" cy="32" r="31" stroke="white" stroke-width="2"/>
<path d="M43.4946 39.4078C36.0194 51.214 27.0702 56.517 20.9443 53.1987L20.9851 53.13C17.6194 50.673 17.7297 40.5351 25.909 30.3459C34.0884 20.1567 50.4635 10.9232 50.4635 10.9232L50.4897 10.9165C51.2394 13.8526 50.8627 27.7757 43.4946 39.4078Z" fill="#DE8D5F"/>
<path d="M25.9075 30.3487C17.7281 40.5379 17.6195 50.6731 20.9835 53.1328L20.9428 53.2014C20.4008 52.9133 19.888 52.5572 19.3946 52.1308C18.2907 51.1752 17.2957 50.0985 16.4616 48.9132C12.9725 42.8964 17.0622 31.6959 24.6568 24.2638C32.5239 16.5664 50.2165 10.3757 50.2165 10.3757C50.3143 10.43 50.4056 10.6141 50.4821 10.9231L50.4559 10.9298C50.4575 10.9271 34.0868 20.1594 25.9075 30.3487Z" fill="#B67349"/>
<path d="M50.2209 10.3746C50.2209 10.3746 32.5282 16.5652 24.6612 24.2627C17.0639 31.6931 12.9768 42.8953 16.466 48.9121C12.7003 43.5555 12.1879 35.9444 19.3737 27.0483C28.1509 16.1704 47.6502 8.96842 50.2209 10.3746Z" fill="#A36139"/>
<path d="M47.477 13.3287C46.5502 12.4188 29.0727 23.5231 29.2804 24.4186C29.4924 25.313 44.5504 15.6584 45.4059 15.1113C46.1364 14.6498 47.477 13.3287 47.477 13.3287Z" fill="#A36139"/>
<path d="M41.6842 19.858C34.7985 23.8231 28.1573 29.8046 24.7614 34.4401C21.3655 39.0755 18.0252 48.1364 18.5262 48.8941C19.0273 49.6518 22.51 38.3918 27.4954 32.8168C32.4842 27.2363 41.6842 19.858 41.6842 19.858Z" fill="#A36139"/>
<path d="M48.6888 17.445C49.0065 19.5196 43.0795 34.8248 42.5324 35.3654C41.9836 35.9087 44.6731 27.6758 45.5261 24.5728C46.3776 21.4726 48.6888 17.445 48.6888 17.445Z" fill="#A36139"/>
<path d="M41.6976 24.4923C42.2072 24.7723 41.3139 29.7896 37.3008 35.5219C33.2849 41.2525 27.1045 45.4057 26.6547 45.0498C26.2033 44.6966 31.8291 40.4706 35.7402 35.0231C39.6512 29.5756 41.6976 24.4923 41.6976 24.4923Z" fill="#A36139"/>
<path d="M36.2877 44.0958C33.9088 46.9731 29.05 51.9215 23.6636 51.3439C22.7334 50.9777 27.7077 50.3789 30.6608 48.3175C33.6166 46.2577 36.2877 44.0958 36.2877 44.0958Z" fill="#A36139"/>
<path d="M33.8023 30.8289C31.4871 32.541 26.2799 38.5526 23.5939 43.9879C23.3084 45.5896 26.768 39.7889 28.8958 37.0783C31.0253 34.3649 33.8023 30.8289 33.8023 30.8289Z" fill="#A36139"/>
</svg>
