<svg width="64" height="64" viewBox="0 0 64 64" fill="none" xmlns="http://www.w3.org/2000/svg">
<circle opacity="0.6" cx="32" cy="32" r="31" stroke="white" stroke-width="2"/>
<path d="M54 32.0005C54 36.7547 52.4923 41.1574 49.9273 44.755C48.4624 46.813 46.6515 48.6052 44.5776 50.0509C41.0119 52.5406 36.6766 54 31.9998 54C31.5571 54 31.1171 53.9868 30.6826 53.9599C27.431 53.7693 24.3696 52.8707 21.6491 51.4163C17.3995 49.1468 13.9838 45.5246 11.9746 41.1219C10.8316 38.6162 10.145 35.8579 10.0214 32.9551C10.0082 32.6387 10 32.3191 10 32C10 27.2727 11.4918 22.8941 14.0298 19.307C15.6611 16.9996 17.7241 15.0223 20.1067 13.4905C23.5357 11.2825 27.6189 10 32.0002 10C32.6253 10 33.2476 10.0269 33.8595 10.078C36.1454 10.2685 38.3347 10.8106 40.3681 11.6499C45.6266 13.8123 49.8603 17.9547 52.1462 23.1489C53.0476 25.1987 53.6485 27.4149 53.8847 29.7355C53.9599 30.4791 54 31.2359 54 32.0005Z" fill="url(#paint0_radial)"/>
<path d="M31.8657 31.866C29.1826 28.6464 23.8169 29.183 19.7926 28.6464C15.7682 28.1098 15.4997 21.939 15.2316 20.0611C15.1349 19.3932 14.6362 19.2346 14.0298 19.3071C15.6611 16.9997 17.7241 15.0224 20.1067 13.4905C20.3214 14.7489 19.8815 16.7343 19.2564 18.4513C18.1832 21.4024 20.0611 22.7442 23.0127 24.0855C25.9634 25.4272 31.5971 29.1835 31.8657 31.866Z" fill="url(#paint1_linear)"/>
<path d="M40.368 11.6505C40.167 12.9517 38.8521 14.226 37.2318 14.4275C35.0853 14.6956 33.2074 16.3054 34.0121 20.0616C34.8679 25.6233 33.1641 29.9909 32.4401 31.5337C32.4214 31.5739 32.4027 31.6117 32.3836 31.6491C32.3649 31.6892 32.3462 31.7298 32.3298 31.7644C32.3243 31.7699 32.3216 31.7754 32.3188 31.7804C32.2035 32.0138 32.1337 32.1346 32.1337 32.1346C32.1739 32.0248 32.2062 31.9094 32.2331 31.7859C32.2386 31.7617 32.2441 31.7375 32.2491 31.7106C32.2518 31.6892 32.2573 31.665 32.26 31.6409C32.2628 31.6354 32.2628 31.6299 32.2628 31.6249C32.7834 28.4404 29.1534 21.9637 28.646 17.6471C28.1094 13.0862 32.1337 12.5496 33.475 11.4764C33.926 11.1144 33.982 10.6019 33.8585 10.0786C36.1449 10.2687 38.3342 10.8107 40.368 11.6505Z" fill="url(#paint2_linear)"/>
<path d="M53.8846 29.7358C50.9335 25.4863 45.6508 24.5443 43.9388 26.5002C42.2109 28.4748 35.7209 30.9002 32.6007 31.6971C32.5067 31.7213 32.4156 31.7427 32.3298 31.7642C32.3216 31.7642 32.3139 31.7669 32.3084 31.7696C32.2815 31.7751 32.2574 31.7806 32.2332 31.7856C32.1958 31.7965 32.158 31.8043 32.1233 31.8125C32.0859 31.8207 32.0481 31.8284 32.0134 31.8366C31.9624 31.8476 31.914 31.8553 31.8657 31.8663C31.9273 31.8312 31.9893 31.7965 32.0508 31.7642C32.0777 31.7482 32.1046 31.7318 32.1288 31.7213C32.1288 31.7186 32.1288 31.7186 32.1288 31.7186C32.1557 31.7026 32.1826 31.6862 32.2095 31.673C32.2282 31.662 32.2446 31.6515 32.2605 31.6406C32.2688 31.6379 32.2765 31.6324 32.282 31.6274C32.3358 31.5977 32.3864 31.5658 32.4402 31.5335C37.9481 28.1424 40.5938 20.8396 44.744 20.0614C47.0888 19.6214 49.9943 21.4241 52.1462 23.1493C53.0476 25.199 53.6485 27.4152 53.8846 29.7358Z" fill="url(#paint3_linear)"/>
<path d="M49.9272 44.755C48.4623 46.813 46.6514 48.6052 44.5775 50.0508C43.9711 48.8997 43.44 47.0086 43.9392 45.0121C44.7439 41.7925 43.9392 40.1831 40.988 38.5733C37.4278 36.674 33.2397 32.6761 32.3193 31.7802C32.3138 31.7747 32.311 31.772 32.3083 31.7693C32.2869 31.7478 32.2655 31.7291 32.2495 31.7104C32.2335 31.6972 32.2199 31.6836 32.2094 31.6731C32.1611 31.6247 32.1342 31.5978 32.1342 31.5978C32.1342 31.5978 32.177 31.606 32.2627 31.6247C32.2682 31.6247 32.2737 31.6275 32.2814 31.6275C32.311 31.6357 32.3457 31.6407 32.3835 31.6489C32.4451 31.6621 32.5176 31.6785 32.601 31.6972C32.601 31.6972 32.601 31.6972 32.6037 31.6972C33.8379 31.963 37.4438 32.7786 42.5979 34.2809C49.0368 36.1588 47.9636 39.915 47.9636 42.0615C47.9631 43.2254 48.988 44.1514 49.9272 44.755Z" fill="url(#paint4_linear)"/>
<path d="M35.0854 48.5003C33.2931 50.9631 30.9429 51.7441 30.6826 53.9598C27.431 53.7693 24.3695 52.8707 21.649 51.4163C23.9779 50.8286 28.6515 49.4258 29.4511 47.4266C30.5244 44.7436 29.9878 43.1338 29.7192 39.9146C29.4858 37.1085 31.4927 32.8799 32.0106 31.8363H32.0134C32.0266 31.8094 32.0376 31.7852 32.048 31.7638H32.0508C32.1046 31.6567 32.1337 31.5974 32.1337 31.5974C32.1337 31.5974 32.131 31.6403 32.1283 31.7182C32.1283 31.7182 32.1283 31.7182 32.1283 31.721C32.1255 31.7479 32.1228 31.7775 32.1228 31.8121C32.08 32.7107 31.9724 36.2121 32.6704 38.3048C33.4755 40.7197 37.2313 45.5492 35.0854 48.5003Z" fill="url(#paint5_linear)"/>
<path d="M31.8658 31.866C30.2559 31.866 26.5001 35.6222 24.6217 39.378C22.8883 42.847 18.1773 45.4011 11.9741 41.1219C10.8312 38.6162 10.1445 35.8579 10.021 32.9551C11.8346 34.7847 14.9763 37.5001 17.6457 37.5001C21.6706 37.5001 25.4269 30.2566 31.8658 31.866Z" fill="url(#paint6_linear)"/>
<defs>
<radialGradient id="paint0_radial" cx="0" cy="0" r="1" gradientUnits="userSpaceOnUse" gradientTransform="translate(31.9998 32.0003) scale(22.0001 21.9999)">
<stop offset="0.053" stop-color="#FFF8E9"/>
<stop offset="0.5938" stop-color="#F5D2A4"/>
<stop offset="0.7568" stop-color="#FFE4B5"/>
<stop offset="0.8736" stop-color="#EABE91"/>
<stop offset="1" stop-color="#EABE91"/>
</radialGradient>
<linearGradient id="paint1_linear" x1="16.9337" y1="18.6751" x2="31.8721" y2="33.0029" gradientUnits="userSpaceOnUse">
<stop stop-color="#EF4927"/>
<stop offset="0.072" stop-color="#C9220A"/>
<stop offset="0.0775" stop-color="#C41D06"/>
<stop offset="0.0919" stop-color="#BD1601"/>
<stop offset="0.1318" stop-color="#BB1400"/>
<stop offset="0.2052" stop-color="#DB2C00"/>
<stop offset="0.2677" stop-color="#DF3208"/>
<stop offset="0.4285" stop-color="#EB431F"/>
<stop offset="0.6282" stop-color="#F65335"/>
<stop offset="0.8215" stop-color="#FD5D42"/>
<stop offset="1" stop-color="#FF6046"/>
</linearGradient>
<linearGradient id="paint2_linear" x1="35.1366" y1="10.9122" x2="31.4192" y2="28.2934" gradientUnits="userSpaceOnUse">
<stop stop-color="#EF4927"/>
<stop offset="0.072" stop-color="#C9220A"/>
<stop offset="0.0775" stop-color="#C41D06"/>
<stop offset="0.0919" stop-color="#BD1601"/>
<stop offset="0.1318" stop-color="#BB1400"/>
<stop offset="0.2052" stop-color="#DB2C00"/>
<stop offset="0.2677" stop-color="#DF3208"/>
<stop offset="0.4285" stop-color="#EB431F"/>
<stop offset="0.6282" stop-color="#F65335"/>
<stop offset="0.8215" stop-color="#FD5D42"/>
<stop offset="1" stop-color="#FF6046"/>
</linearGradient>
<linearGradient id="paint3_linear" x1="50.7512" y1="24.0473" x2="31.2198" y2="34.2044" gradientUnits="userSpaceOnUse">
<stop stop-color="#EF4927"/>
<stop offset="0.072" stop-color="#C9220A"/>
<stop offset="0.0775" stop-color="#C41D06"/>
<stop offset="0.0919" stop-color="#BD1601"/>
<stop offset="0.1318" stop-color="#BB1400"/>
<stop offset="0.2052" stop-color="#DB2C00"/>
<stop offset="0.2677" stop-color="#DF3208"/>
<stop offset="0.4285" stop-color="#EB431F"/>
<stop offset="0.6282" stop-color="#F65335"/>
<stop offset="0.8215" stop-color="#FD5D42"/>
<stop offset="1" stop-color="#FF6046"/>
</linearGradient>
<linearGradient id="paint4_linear" x1="48.4768" y1="45.9664" x2="35.5864" y2="33.7012" gradientUnits="userSpaceOnUse">
<stop stop-color="#EF4927"/>
<stop offset="0.1227" stop-color="#C9220A"/>
<stop offset="0.1297" stop-color="#C41D06"/>
<stop offset="0.1481" stop-color="#BD1601"/>
<stop offset="0.199" stop-color="#BB1400"/>
<stop offset="0.3311" stop-color="#DB2C00"/>
<stop offset="0.4308" stop-color="#DF3208"/>
<stop offset="0.5558" stop-color="#EB431F"/>
<stop offset="0.711" stop-color="#F65335"/>
<stop offset="0.8613" stop-color="#FD5D42"/>
<stop offset="1" stop-color="#FF6046"/>
</linearGradient>
<linearGradient id="paint5_linear" x1="27.8256" y1="53.5553" x2="32.0175" y2="32.0315" gradientUnits="userSpaceOnUse">
<stop stop-color="#EF4927"/>
<stop offset="0.072" stop-color="#C9220A"/>
<stop offset="0.0844" stop-color="#C41D06"/>
<stop offset="0.1167" stop-color="#BD1601"/>
<stop offset="0.2064" stop-color="#BB1400"/>
<stop offset="0.2816" stop-color="#DB2C00"/>
<stop offset="0.4104" stop-color="#DF3208"/>
<stop offset="0.5399" stop-color="#EB431F"/>
<stop offset="0.7006" stop-color="#F65335"/>
<stop offset="0.8563" stop-color="#FD5D42"/>
<stop offset="1" stop-color="#FF6046"/>
</linearGradient>
<linearGradient id="paint6_linear" x1="11.3913" y1="39.4476" x2="31.8201" y2="31.7118" gradientUnits="userSpaceOnUse">
<stop stop-color="#EF4927"/>
<stop offset="0.072" stop-color="#C9220A"/>
<stop offset="0.0775" stop-color="#C41D06"/>
<stop offset="0.0919" stop-color="#BD1601"/>
<stop offset="0.1318" stop-color="#BB1400"/>
<stop offset="0.284" stop-color="#DB2C00"/>
<stop offset="0.3626" stop-color="#DF3208"/>
<stop offset="0.5026" stop-color="#EB431F"/>
<stop offset="0.6764" stop-color="#F65335"/>
<stop offset="0.8447" stop-color="#FD5D42"/>
<stop offset="1" stop-color="#FF6046"/>
</linearGradient>
</defs>
</svg>
