<svg width="64" height="64" viewBox="0 0 64 64" fill="none" xmlns="http://www.w3.org/2000/svg">
<circle opacity="0.6" cx="32" cy="32" r="31" stroke="white" stroke-width="2"/>
<path d="M18.6188 10L21.571 23.4016L39.8275 24.7283C39.8275 24.7283 38.2989 15.2053 36.8752 12.5472C36.8752 12.5472 29.1136 11.1095 18.6188 10Z" fill="#763B2A"/>
<path d="M11.0762 10.5547C11.0762 10.5547 15.119 10.2219 18.6188 10L21.571 23.4016L14.6855 30.5993C14.6855 30.5993 14.795 28.4959 11.0762 10.5547Z" fill="#8C503F"/>
<path d="M21.5711 23.4014L39.8275 24.7282C39.8275 24.7282 40.2656 30.4882 40.3751 31.704L14.6855 30.5946L21.5711 23.4014Z" fill="#441803"/>
<path d="M11.0762 10.5546C11.0762 10.5546 14.795 28.7177 14.6855 30.5992L12.6093 32.3697C12.6093 32.3697 9.87609 16.421 9 12.8799L11.0762 10.5546Z" fill="#753C2B"/>
<path d="M40.3704 31.704C40.3704 31.704 16.3236 30.2664 14.6809 30.5946L12.6047 32.3651L38.6182 33.8028L40.3704 31.704Z" fill="#5E2C1E"/>
<path d="M23.8707 31.9722L34.3336 41.3149L49.323 31.6855C49.323 31.6855 42.3279 24.7097 39.6038 23.3506C39.6038 23.3506 32.7001 26.7206 23.8707 31.9722Z" fill="#763B2A"/>
<path d="M18.354 36.8631C18.354 36.8631 21.2926 34.2096 23.8752 31.9721L34.3381 41.3148L33.3753 51.314C33.3753 51.314 32.1752 49.5111 18.354 36.8631Z" fill="#8C503F"/>
<path d="M34.3336 41.3148L49.3229 31.6855C49.3229 31.6855 53.1741 36.1881 54 37.1312L33.3754 51.314L34.3336 41.3148Z" fill="#441803"/>
<path d="M18.354 36.8631C18.354 36.8631 32.3122 49.6961 33.3753 51.3141L32.8415 53.9999C32.8415 53.9999 20.996 42.4198 18.1578 40.0066L18.354 36.8631Z" fill="#753C2B"/>
<path d="M54 37.1313C54 37.1313 34.4432 50.0752 33.3754 51.3141L32.8416 54L53.9225 39.9004L54 37.1313Z" fill="#5E2C1E"/>
</svg>
