<svg width="64" height="64" viewBox="0 0 64 64" fill="none" xmlns="http://www.w3.org/2000/svg">
<circle opacity="0.6" cx="32" cy="32" r="31" stroke="white" stroke-width="2"/>
<path d="M14.1209 18.7909C13.6233 19.4039 14.3427 20.1366 14.858 19.524C15.3569 18.8933 15.9332 18.4082 16.8107 18.6261C23.2707 20.1396 37.3997 44.4117 44.6936 51.0765C46.6373 52.8388 48.4705 53.4204 50.4135 51.1387C50.9458 50.5281 50.2863 49.9398 49.7729 50.5347C46.7444 54.0711 43.4025 46.717 41.8562 44.2643C35.3881 34.0157 24.3751 18.0978 17.0025 17.3787C15.4666 17.3084 14.8676 17.8624 14.1209 18.7909Z" fill="#6B3F18"/>
<path d="M54.161 46.7191C54.6263 46.0682 53.8521 45.3674 53.369 46.0171C52.9038 46.6672 52.4495 46.6537 51.5507 46.487C45.0294 45.3545 25.0923 16.7252 17.4171 10.507C15.3607 8.85948 13.5025 8.38154 11.6913 10.777C11.2089 11.4267 11.8879 11.9807 12.3709 11.3317C14.6999 8.28973 20.1117 15.5944 23.9471 21.1273C28.9277 28.3325 43.8859 47.4457 51.445 47.7573C52.9711 47.7216 53.4644 47.6859 54.161 46.7191Z" fill="#7C5029"/>
<path fill-rule="evenodd" clip-rule="evenodd" d="M47.7864 16.1907C45.9495 21.9502 32.8588 20.0436 31.6979 30.0664C30.7105 22.8075 30.6866 12.9024 19.8734 12.7693C24.7654 16.0098 19.9732 27.4882 28.1775 31.692C21.163 30.0951 12.4297 27.4078 8.89254 37.1779C13.4547 33.7104 22.3518 41.7052 28.9618 36.1946C24.9188 42.0029 19.7393 48.8706 27.254 55.6918C25.6074 49.6823 38.2464 44.0486 32.8179 34.5489C38.159 39.67 44.362 48.348 53.2504 41.5659C47.5831 42.0051 44.3521 30.5939 35.8681 31.529C42.3974 28.8692 50.3977 25.925 47.7864 16.1907ZM31.9512 32.2026C35.5845 32.7444 38.8537 36.2624 38.8537 36.2624C36.5137 34.6787 34.0952 32.9293 31.6289 32.7641C31.8253 36.4446 28.9503 40.3346 28.9503 40.3346C30.0446 37.7838 31.2927 35.1265 31.0337 32.6939C27.7047 34.1926 23.0713 32.983 23.0713 32.983C25.8468 33.0637 28.7854 33.2297 30.9444 32.0746C28.3811 29.4323 27.9397 24.6363 27.9397 24.6363C28.8246 27.3064 29.6773 30.1518 31.5107 31.8117C33.3375 28.6264 37.8475 26.9432 37.8475 26.9432C35.5412 28.4845 33.0617 30.0383 31.9512 32.2026Z" fill="#D4B88A"/>
<path fill-rule="evenodd" clip-rule="evenodd" d="M30.5745 28.3486C32.1041 27.4159 33.9517 27.6801 34.7251 28.9256C35.4892 30.1466 34.8538 31.9228 33.3476 32.8467C31.818 33.7794 29.9462 33.5244 29.206 32.2933C28.4329 31.0487 29.0692 29.2722 30.5745 28.3486Z" fill="#F0D1A1"/>
</svg>
