<svg width="282" height="97" viewBox="0 0 282 97" fill="none" xmlns="http://www.w3.org/2000/svg">
<path opacity="0.4" fill-rule="evenodd" clip-rule="evenodd" d="M72.6808 29.1079C68.6487 28.6837 64.584 29.5171 61.0454 31.4937C57.5068 33.4703 54.668 36.493 52.9193 40.1463C51.1706 43.7996 50.5977 47.9041 51.2794 51.8957C51.9612 55.8874 53.8641 59.5701 56.7266 62.4378C59.5891 65.3055 63.2706 67.2174 67.2652 67.9106C71.2598 68.6039 75.3713 68.0444 79.0346 66.3092C82.6979 64.574 85.7332 61.7482 87.7233 58.2203C89.7133 54.6923 90.5604 50.6354 90.1482 46.6071C89.6945 42.1293 87.7098 37.9445 84.5283 34.7572C81.3468 31.5699 77.1628 29.5748 72.6808 29.1079ZM72.0449 58.9723C69.8763 59.2629 67.671 58.8675 65.7391 57.8417C63.8071 56.8159 62.2455 55.2112 61.2738 53.2533C60.3022 51.2954 59.9692 49.0825 60.3218 46.9258C60.6743 44.7692 61.6947 42.777 63.2394 41.2294C64.7842 39.6818 66.7756 38.6565 68.934 38.2976C71.0923 37.9388 73.3089 38.2644 75.2724 39.2287C77.2359 40.193 78.8474 41.7476 79.8806 43.6739C80.9137 45.6002 81.3165 47.8014 81.0324 49.9681C80.7342 52.2471 79.6921 54.3644 78.0674 55.9922C76.4426 57.62 74.3259 58.6674 72.0449 58.9723ZM100.645 29.8833C99.9641 29.8849 99.2923 30.038 98.6784 30.3316C98.0645 30.6251 97.5238 31.0517 97.0957 31.5802C96.6676 32.1087 96.3629 32.7259 96.2037 33.3868C96.0445 34.0478 96.0348 34.7358 96.1754 35.401C96.6061 37.5558 98.6213 39.0281 100.817 39.0281H113.557L93.7303 65.2325C93.5836 65.426 93.4939 65.6564 93.471 65.8979C93.4481 66.1395 93.4931 66.3826 93.6008 66.6001C93.7086 66.8176 93.8748 67.0008 94.081 67.1292C94.2871 67.2576 94.525 67.3261 94.7679 67.327H125.868C128.062 67.327 130.078 65.8551 130.509 63.6999C130.65 63.0348 130.64 62.3469 130.481 61.686C130.322 61.0251 130.017 60.408 129.59 59.8794C129.162 59.3509 128.621 58.9242 128.007 58.6305C127.394 58.3368 126.722 58.1833 126.042 58.1814H110.519L130.33 31.9974C130.478 31.802 130.569 31.5694 130.592 31.3255C130.615 31.0815 130.569 30.836 130.461 30.6165C130.352 30.397 130.184 30.212 129.975 30.0825C129.767 29.953 129.527 29.884 129.282 29.8833H100.645ZM224.918 29.9887C223.888 30.2333 222.973 30.8214 222.323 31.6559C221.674 32.4904 221.329 33.5213 221.346 34.5782V49.8041L196.643 30.1708C196.449 30.0173 196.216 29.9214 195.97 29.8943C195.724 29.8673 195.475 29.91 195.253 30.0178C195.03 30.1255 194.843 30.2938 194.712 30.5033C194.581 30.7128 194.511 30.955 194.512 31.202V62.6402C194.495 63.6971 194.84 64.728 195.49 65.5626C196.139 66.3971 197.055 66.9852 198.084 67.2297C198.753 67.3766 199.446 67.3717 200.112 67.2155C200.779 67.0592 201.402 66.7555 201.935 66.3267C202.468 65.898 202.898 65.3551 203.193 64.7382C203.489 64.1213 203.641 63.4461 203.64 62.7623V47.4047L228.344 67.0383C228.538 67.1918 228.771 67.2876 229.016 67.3146C229.262 67.3417 229.511 67.2989 229.733 67.1912C229.956 67.0836 230.143 66.9153 230.274 66.7059C230.405 66.4965 230.474 66.2545 230.474 66.0075V34.4546C230.474 33.771 230.322 33.096 230.026 32.4793C229.731 31.8626 229.301 31.32 228.768 30.8914C228.235 30.4628 227.612 30.1592 226.946 30.003C226.279 29.8468 225.586 29.8419 224.918 29.9887ZM160.598 38.1528C171.046 38.1528 178.854 43.6676 178.854 48.6005C178.854 53.5334 171.046 59.0482 160.598 59.0482C150.149 59.0482 142.342 53.5334 142.342 48.6005C142.342 43.6676 150.149 38.1528 160.598 38.1528ZM160.598 29.0083C145.473 29.0083 133.213 37.7801 133.213 48.6005C133.213 59.4209 145.473 68.1927 160.598 68.1927C175.722 68.1927 187.982 59.4209 187.982 48.6005C187.982 37.7801 175.721 29.0083 160.598 29.0083Z" fill="#777670"/>
</svg>
