<svg width="282" height="97" viewBox="0 0 282 97" fill="none" xmlns="http://www.w3.org/2000/svg">
<path d="M38.6161 27.6243H35.9214C35.0895 27.6243 34.2861 27.7983 33.5078 28.1481C32.7278 28.4978 32.0349 29.0554 31.4323 29.8242C30.8264 30.593 30.3444 31.5781 29.9762 32.7845C29.6146 33.9875 29.4339 35.4271 29.4339 37.1033C29.4339 38.7422 29.6347 40.1328 30.0314 41.2666C30.4297 42.402 30.957 43.3364 31.6148 44.0714C32.2726 44.803 33.0157 45.3353 33.8459 45.6664C34.6744 45.9993 35.5397 46.1649 36.4402 46.1649H38.6161V27.6226V27.6243ZM28.2388 64.5517H23.5188L31.9244 48.8886C29.469 47.7025 27.7132 46.1226 26.6588 44.1491C25.6043 42.1773 25.0754 39.8287 25.0754 37.1033C25.0754 35.0081 25.37 33.1596 25.9575 31.5527C26.5433 29.9476 27.3417 28.5958 28.3442 27.4942C29.3485 26.3925 30.5151 25.5646 31.8457 25.0053C33.1797 24.4477 34.5874 24.1689 36.077 24.1689H42.7185V64.5517H38.6161V49.5712H35.9214L28.2388 64.5517Z" fill="#FF0000"/>
<path fill-rule="evenodd" clip-rule="evenodd" d="M83.7575 69.7896H80.0753V64.501H68.61V69.7896H64.9244V61.0946H66.5312C67.3631 59.5232 68.0108 57.8302 68.4795 56.0138C68.9481 54.1974 69.2996 52.3642 69.5423 50.514C69.785 48.6638 69.9306 46.8306 69.9842 45.0142C70.0377 43.1978 70.0628 41.4693 70.0628 39.8269V37.5256H81.6854V61.0963H83.7609V69.7896H83.7575ZM101.712 63.2946C100.847 63.7845 99.8875 64.2103 98.8331 64.5787C97.7786 64.9453 96.5902 65.1278 95.278 65.1278C92.5799 65.1278 90.4174 63.9958 88.7922 61.7249C87.1686 59.4557 86.3535 56.2605 86.3535 52.1394C86.3535 50.149 86.5209 48.2363 86.8473 46.4048C87.177 44.5681 87.6775 42.946 88.3537 41.5318C89.0282 40.1159 89.8835 38.9804 90.9212 38.1271C91.9589 37.2722 93.2025 36.843 94.6537 36.843C96.7995 36.843 98.5301 37.9278 99.8423 40.0922C101.158 42.255 101.817 45.4518 101.817 49.6776V51.9823H90.6601C90.6601 54.9156 91.1522 57.2033 92.138 58.8423C93.1256 60.4847 94.6721 61.3058 96.7827 61.3058C97.5778 61.3058 98.3996 61.1926 99.2465 60.9679C100.095 60.7381 100.761 60.5201 101.245 60.3089L101.714 63.2962L101.712 63.2946ZM94.498 40.197C93.9122 40.197 93.3934 40.4048 92.9414 40.8221C92.4929 41.2446 92.1129 41.8275 91.8033 42.5794C91.4903 43.3296 91.2476 44.2116 91.0752 45.2237C90.9028 46.2375 90.7806 47.3358 90.712 48.5253H97.561V47.9508C97.561 47.7751 97.5526 47.5824 97.5359 47.3729C97.5192 47.1634 97.5091 46.937 97.5091 46.692C97.3702 44.6306 97.0405 43.0322 96.5216 41.8968C96.0027 40.7647 95.3299 40.1953 94.4997 40.1953L94.498 40.197ZM77.5847 40.8762V61.0946H70.1666C70.8562 59.9423 71.4269 58.5804 71.8772 57.009C72.3291 55.4377 72.6906 53.77 72.9651 52.0077C73.243 50.2437 73.4338 48.4459 73.5376 46.6109C73.6413 44.7776 73.6932 43.0407 73.6932 41.4V40.8762H77.5847ZM62.5376 37.5239V64.501H58.4369V51.614H52.316V64.4993H48.165V37.5222H52.316V48.1552H58.4386V37.5239H62.5393H62.5376ZM121.534 64.501H116.915L110.533 51.1949L110.064 50.6204V64.4993H105.913V37.5222H110.064V49.779L110.533 49.2552L116.19 37.5222H120.599L114.063 49.6742L121.534 64.4976V64.501ZM126.877 51.0902C126.877 54.2667 127.362 56.764 128.33 58.5804C129.301 60.3968 130.785 61.3041 132.792 61.3041C133.554 61.3041 134.332 61.1909 135.127 60.9662C135.924 60.7364 136.566 60.5184 137.048 60.3072L137.463 63.2946C136.668 63.7845 135.778 64.2103 134.792 64.5787C133.805 64.9453 132.69 65.1278 131.445 65.1278C128.783 65.1278 126.628 64.0127 124.984 61.7772C123.344 59.5418 122.52 56.3298 122.52 52.1394C122.52 49.8348 122.754 47.7396 123.223 45.8539C123.688 43.9683 124.319 42.3614 125.114 41.035C125.909 39.7103 126.862 38.6797 127.968 37.9463C129.073 37.213 130.268 36.8481 131.55 36.8481C132.688 36.8481 133.719 37.0035 134.636 37.3178C135.552 37.6321 136.374 38.0511 137.1 38.5749L134.971 42.1908C134.486 41.6298 133.942 41.1601 133.336 40.7748C132.733 40.3913 132.119 40.2003 131.495 40.2003C130.77 40.2003 130.112 40.5129 129.525 41.1415C128.939 41.77 128.454 42.5912 128.072 43.6033C127.692 44.6171 127.397 45.7762 127.19 47.0874C126.982 48.3969 126.879 49.7317 126.879 51.0919L126.877 51.0902ZM155.381 58.234H157.4L162.94 37.4378C163.351 35.8698 163.715 34.3541 164.178 32.264H164.388C164.284 34.1463 164.18 36.0269 164.18 37.8061V63.9839H166.664V26.6189H163.765L157.453 50.5005C157.192 51.4416 156.777 53.427 156.571 54.8378H156.415C156.26 53.4287 155.897 51.4957 155.639 50.5022L149.376 26.6189H146.373V63.9822H148.649V37.8044C148.649 35.9204 148.599 34.0399 148.495 32.2623H148.651C148.962 33.9858 149.377 35.6586 149.894 37.5932L155.378 58.2323L155.381 58.234ZM177.639 62.5207C180.072 62.5207 181.781 60.1721 182.71 57.347V50.0848H179.915C175.62 50.0848 173.55 52.0702 173.55 56.6677C173.55 60.3782 175.156 62.5207 177.639 62.5207ZM183.437 63.9839C183.229 63.3047 182.971 62.3112 182.817 60.4306C181.574 62.9397 179.709 64.5077 177.121 64.5077C173.603 64.5077 171.17 61.686 171.17 56.8772C171.17 51.2338 174.224 48.3073 179.866 48.3073H182.712V45.0159C182.712 40.9911 181.212 39.266 178.365 39.266C176.139 39.266 174.12 40.3136 172.878 42.1418L172.206 39.7898C173.24 38.4313 175.414 37.1235 178.365 37.1235C182.662 37.1235 185.094 39.5279 185.094 44.754V59.1245C185.094 60.9527 185.355 62.9938 185.663 63.9839H183.437ZM197.931 62.5207C201.245 62.5207 203.418 58.55 203.418 50.2403C203.418 43.3414 201.555 39.2643 198.552 39.2643C196.222 39.2643 194.256 41.7734 193.118 44.5951V59.3289C194.152 61.4748 195.601 62.5173 197.931 62.5173V62.5207ZM197.776 64.4553C195.811 64.4553 194.102 63.4618 193.119 62.1574V72.1365H190.686V37.6456H192.808L193.016 41.9829C194.154 39.4738 196.07 37.1218 198.967 37.1218C203.316 37.1218 205.853 42.4003 205.853 50.0308C205.853 59.6956 202.643 64.4537 197.777 64.4537L197.776 64.4553ZM212.945 50.3467L222.003 63.9822H224.698L215.481 49.8736L224.074 37.6473H221.694L212.945 50.0324V37.6473H210.511V63.9839H212.943V50.3417L212.945 50.3467ZM239.966 59.5418L240.743 61.5289C240.743 61.5289 238.778 64.5077 234.637 64.5077C229.097 64.5077 226.561 59.4388 226.561 50.8148C226.561 42.1908 229.77 37.1218 234.17 37.1218C238.672 37.1218 241.573 41.8782 240.744 51.2304H228.944C229.045 58.4452 230.911 62.3652 234.69 62.3652C238.155 62.3652 239.968 59.5435 239.969 59.5401L239.966 59.5418ZM234.168 39.1646C231.423 39.1646 229.197 42.7162 228.993 49.3025H238.466C238.881 42.2972 236.809 39.1646 234.17 39.1646H234.168ZM257.981 39.685V37.6456H243.486V39.6833H249.545V63.9806H251.975V39.685H257.981Z" fill="#333333"/>
</svg>
