<svg width="282" height="97" viewBox="0 0 282 97" fill="none" xmlns="http://www.w3.org/2000/svg">
<g clip-path="url(#clip0)">
<path fill-rule="evenodd" clip-rule="evenodd" d="M176.903 46.6398C176.924 47.7676 177.856 48.674 178.976 48.674C180.096 48.674 181.028 47.7676 181.028 46.6398V41.9812H187.791V46.6398C187.791 47.7676 188.743 48.674 189.864 48.674C190.984 48.674 191.915 47.7676 191.915 46.6398V33.2225C191.915 32.0948 190.963 31.1883 189.843 31.1883C188.722 31.1883 187.791 32.0948 187.791 33.2225V37.8812H181.007V33.2225C181.007 32.0948 180.075 31.1883 178.955 31.1883C177.835 31.1883 176.903 32.0948 176.903 33.2225V46.6398ZM127.699 35.457V46.6398C127.699 47.7887 128.652 48.674 129.783 48.674C130.934 48.674 131.866 47.7781 131.866 46.6398V35.457H134.986C136.127 35.457 137.037 34.5506 137.037 33.4017C137.037 32.295 136.116 31.3675 134.986 31.3675H124.579C123.438 31.3675 122.528 32.295 122.528 33.4017C122.528 34.5506 123.449 35.457 124.579 35.457H127.699ZM113.189 40.5161L108.363 32.2107C107.808 31.2726 106.646 30.9354 105.641 31.3886C104.626 31.9788 104.301 33.2225 104.887 34.2133L110.645 44.0048C109.944 44.4686 109.19 44.6372 108.374 44.7005C107.253 44.8059 106.5 45.6069 106.5 46.6714C106.5 47.9362 107.515 48.6424 108.552 48.6424C110.886 48.6424 112.928 47.4514 114.404 45.7861C115.744 44.2683 116.759 42.3501 117.712 40.5583L121.104 34.15C121.617 33.1593 121.303 31.8629 120.256 31.357C119.272 30.8827 118.068 31.3043 117.544 32.2845L113.189 40.5161ZM195.203 39.947C195.203 44.964 198.898 48.674 203.913 48.674C208.927 48.674 212.623 44.9429 212.623 39.947C212.623 34.93 208.896 31.1989 203.913 31.1989C198.898 31.1989 195.203 34.93 195.203 39.947ZM208.446 39.947C208.446 42.6241 206.603 44.6372 203.902 44.6372C201.191 44.6372 199.359 42.6136 199.359 39.947C199.359 37.2698 201.201 35.2356 203.902 35.2356C206.614 35.2356 208.446 37.2698 208.446 39.947ZM226.798 35.4675C227.939 35.4675 228.839 34.5716 228.839 33.4544C228.839 32.3583 227.939 31.4307 226.798 31.4307H223.689C218.611 31.4307 214.999 35.0775 214.999 39.9786C214.999 44.8691 218.611 48.5265 223.689 48.5265H226.798C227.939 48.5265 228.839 47.6306 228.839 46.5028C228.839 45.4067 227.939 44.4791 226.798 44.4791H223.573C220.862 44.4791 219.082 42.5609 219.082 39.9681C219.082 37.3752 220.872 35.457 223.573 35.457H226.798V35.4675ZM151.108 48.0732C151.872 48.8637 153.16 48.8954 153.945 48.1049C154.709 47.346 154.793 46.039 154.028 45.2486L148.794 39.81L153.819 34.5822C154.573 33.7917 154.5 32.4953 153.735 31.7575C152.971 30.967 151.683 30.9986 150.93 31.7891L145.737 37.175C145.287 37.6493 144.973 37.7125 144.638 37.7125C144.125 37.7125 143.685 37.3542 143.685 36.8166V33.2225C143.685 32.0948 142.753 31.1883 141.633 31.1883C140.513 31.1883 139.581 32.0948 139.581 33.2225V46.6504C139.581 47.7781 140.513 48.6846 141.633 48.6846C142.753 48.6846 143.685 47.7781 143.685 46.6504V42.8349C143.685 42.3185 144.125 41.9601 144.638 41.9601C144.973 41.9601 145.287 42.0233 145.737 42.4976L151.108 48.0732ZM156.216 39.947C156.216 44.964 159.912 48.674 164.927 48.674C169.941 48.674 173.637 44.9429 173.637 39.947C173.637 34.93 169.91 31.1989 164.927 31.1989C159.912 31.1989 156.216 34.93 156.216 39.947ZM169.47 39.947C169.47 42.6241 167.628 44.6372 164.927 44.6372C162.215 44.6372 160.383 42.6136 160.383 39.947C160.383 37.2698 162.226 35.2356 164.927 35.2356C167.628 35.2356 169.47 37.2698 169.47 39.947ZM233.938 38.3028C235.037 38.3028 236.01 37.3963 236.01 36.2053C236.01 35.0565 235.037 34.1395 233.938 34.1395C232.807 34.1395 231.854 35.067 231.854 36.2053C231.844 37.3858 232.796 38.3028 233.938 38.3028ZM233.938 45.7545C235.037 45.7545 236.01 44.8164 236.01 43.657C236.01 42.5082 235.037 41.6017 233.938 41.6017C232.807 41.6017 231.854 42.5082 231.854 43.657C231.844 44.8059 232.796 45.7545 233.938 45.7545Z" fill="#31AA30"/>
<path d="M108.039 57.6118C110.038 57.6118 111.138 59.1085 111.138 60.953C111.138 62.7975 110.049 64.2941 108.039 64.2941C106.039 64.2941 104.94 62.7975 104.94 60.953C104.95 59.1085 106.039 57.6118 108.039 57.6118ZM108.039 63.609C109.494 63.609 110.384 62.5761 110.384 60.953C110.384 59.3298 109.494 58.2969 108.039 58.2969C106.584 58.2969 105.694 59.3298 105.694 60.953C105.694 62.5761 106.584 63.609 108.039 63.609Z" fill="#060606"/>
<path d="M117.859 57.7488C118.11 57.7488 118.225 57.949 118.225 58.1704V63.746C118.225 63.9673 118.11 64.1676 117.859 64.1676C117.607 64.1676 117.492 63.9673 117.492 63.746V61.1953H113.671V63.746C113.671 63.9673 113.556 64.1676 113.305 64.1676C113.053 64.1676 112.938 63.9673 112.938 63.746V58.1704C112.938 57.949 113.053 57.7488 113.305 57.7488C113.556 57.7488 113.671 57.949 113.671 58.1704V60.5102H117.492V58.1704C117.492 57.9385 117.607 57.7488 117.859 57.7488Z" fill="#060606"/>
<path d="M120.633 62.8395C120.999 61.891 121.156 60.0043 121.219 58.0755C121.219 57.8753 121.366 57.7488 121.575 57.7488H124.726C124.988 57.7488 125.114 57.928 125.114 58.1493V63.746C125.114 63.9673 124.998 64.1676 124.747 64.1676C124.496 64.1676 124.381 63.9673 124.381 63.746V58.4233H121.9C121.826 59.8884 121.722 62.0385 121.219 63.219C120.905 63.9568 120.455 64.2308 119.932 64.2308C119.67 64.2308 119.377 64.1254 119.408 63.8092C119.45 63.5036 119.638 63.5246 119.879 63.5246C120.225 63.5246 120.476 63.2295 120.633 62.8395Z" fill="#060606"/>
<path d="M127.406 58.5815C127.302 58.3285 127.427 58.1915 127.626 58.0861C128.108 57.8332 128.924 57.6118 129.699 57.6118C131.405 57.6118 132.107 58.4866 132.107 59.9306V63.746C132.107 63.9674 131.992 64.1676 131.74 64.1676C131.489 64.1676 131.374 63.9674 131.374 63.746V62.7658C131.06 63.5036 130.296 64.2941 128.893 64.2941C127.647 64.2941 126.789 63.6512 126.789 62.3864C126.789 60.7 128.307 60.2257 129.678 60.2257C130.411 60.2257 130.913 60.289 131.384 60.3522V59.9833C131.384 58.9504 130.861 58.2969 129.636 58.2969C128.998 58.2969 128.526 58.455 127.993 58.6658C127.773 58.7501 127.5 58.8028 127.406 58.5815ZM131.374 61.2586V61.0057C130.84 60.9319 130.463 60.8792 129.772 60.8792C128.485 60.8792 127.532 61.2692 127.532 62.3548C127.532 63.1031 128.024 63.609 128.977 63.609C130.61 63.609 131.374 62.2599 131.374 61.2586Z" fill="#060606"/>
<path d="M134.682 63.9778C134.609 64.0727 134.483 64.157 134.305 64.157C134.054 64.157 133.939 63.9567 133.939 63.7354V58.1598C133.939 57.9384 134.054 57.7382 134.305 57.7382C134.556 57.7382 134.672 57.9384 134.672 58.1598V62.966L138.587 57.9279C138.692 57.812 138.796 57.7487 138.953 57.7487C139.205 57.7487 139.32 57.949 139.32 58.1703V63.7459C139.32 63.9673 139.205 64.1675 138.953 64.1675C138.702 64.1675 138.587 63.9673 138.587 63.7459V58.9819L134.682 63.9778ZM134.902 55.7356C134.829 55.5353 134.829 55.3245 135.007 55.2297C135.216 55.1137 135.394 55.2508 135.499 55.4405C135.729 55.8621 136.095 56.1783 136.671 56.1783C137.247 56.1783 137.603 55.8621 137.844 55.4405C137.948 55.2613 138.126 55.1243 138.336 55.2297C138.514 55.3245 138.514 55.5459 138.44 55.7356C138.262 56.1994 137.676 56.8107 136.671 56.8107C135.677 56.8107 135.09 56.1994 134.902 55.7356Z" fill="#060606"/>
<path d="M146.104 57.7488C146.355 57.7488 146.47 57.949 146.47 58.1704V63.746C146.47 63.9673 146.355 64.1676 146.104 64.1676C145.852 64.1676 145.737 63.9673 145.737 63.746V61.1953H141.916V63.746C141.916 63.9673 141.801 64.1676 141.55 64.1676C141.299 64.1676 141.183 63.9673 141.183 63.746V58.1704C141.183 57.949 141.299 57.7488 141.55 57.7488C141.801 57.7488 141.916 57.949 141.916 58.1704V60.5102H145.737V58.1704C145.748 57.9385 145.863 57.7488 146.104 57.7488Z" fill="#060606"/>
<path d="M148.564 60.6261C148.564 60.4258 148.71 60.2888 148.92 60.2888H152.333C152.542 60.2888 152.688 60.4364 152.688 60.6261C152.688 60.8369 152.542 60.9634 152.333 60.9634H148.92C148.71 60.9634 148.564 60.8369 148.564 60.6261Z" fill="#060606"/>
<path d="M155.505 63.746C155.505 63.9673 155.389 64.1676 155.138 64.1676C154.887 64.1676 154.772 63.9673 154.772 63.746V58.1704C154.772 57.949 154.887 57.7488 155.138 57.7488H158.3C158.509 57.7488 158.656 57.8963 158.656 58.0861C158.656 58.2969 158.509 58.4233 158.3 58.4233H155.505V63.746Z" fill="#060606"/>
<path d="M160.875 63.9779C160.802 64.0728 160.676 64.1571 160.498 64.1571C160.247 64.1571 160.132 63.9568 160.132 63.7355V58.1599C160.132 57.9385 160.247 57.7383 160.498 57.7383C160.75 57.7383 160.865 57.9385 160.865 58.1599V62.9661L164.78 57.928C164.885 57.8121 164.99 57.7488 165.147 57.7488C165.398 57.7488 165.513 57.9491 165.513 58.1704V63.746C165.513 63.9674 165.398 64.1676 165.147 64.1676C164.895 64.1676 164.78 63.9674 164.78 63.746V58.982L160.875 63.9779Z" fill="#060606"/>
<path d="M168.371 58.4233V63.746C168.371 63.9673 168.256 64.1676 168.005 64.1676C167.753 64.1676 167.638 63.9673 167.638 63.746V58.1704C167.638 57.949 167.764 57.7488 167.994 57.7488H172.37C172.621 57.7488 172.747 57.949 172.747 58.1704V63.746C172.747 63.9673 172.632 64.1676 172.381 64.1676C172.129 64.1676 172.014 63.9673 172.014 63.746V58.4233H168.371Z" fill="#060606"/>
<path d="M178.913 63.2188C179.143 63.1029 179.332 63.1029 179.437 63.2821C179.541 63.4613 179.447 63.6615 179.28 63.7775C178.746 64.1358 178.013 64.2834 177.301 64.2834C175.27 64.2834 174.296 63.0291 174.296 60.9844C174.296 59.0556 175.375 57.6011 177.259 57.6011C178.976 57.6011 179.74 58.8342 179.74 60.0885C179.74 60.2887 179.73 60.4785 179.698 60.6471C179.646 61.0371 179.478 61.29 179.007 61.29H175.029C175.134 62.7867 175.94 63.5983 177.29 63.5983C177.929 63.6088 178.432 63.4507 178.913 63.2188ZM175.04 60.6471H179.039C179.06 60.4785 179.06 60.3098 179.06 60.1517C179.039 59.0767 178.463 58.2967 177.217 58.2967C175.95 58.2967 175.144 59.1294 175.04 60.6471Z" fill="#060606"/>
<path d="M187.1 60.7527C187.1 62.6499 186.189 64.2941 184.043 64.2941C183.352 64.2941 182.724 64.1676 182.232 63.8831V66.3599C182.232 66.5813 182.117 66.7815 181.865 66.7815C181.614 66.7815 181.499 66.5813 181.499 66.3599V58.1599C181.499 57.9386 181.614 57.7383 181.865 57.7383C182.117 57.7383 182.232 57.9386 182.232 58.1599V59.2244C182.651 58.1599 183.467 57.6118 184.598 57.6118C186.283 57.6118 187.1 58.9188 187.1 60.7527ZM182.232 61.8699V63.1558C182.787 63.4825 183.362 63.6196 184.053 63.6196C185.781 63.6196 186.346 62.281 186.346 60.7633C186.346 59.3404 185.802 58.2969 184.493 58.2969C182.598 58.2969 182.232 60.2468 182.232 61.8699Z" fill="#060606"/>
<path d="M189.016 57.7488C189.225 57.7488 189.34 57.8542 189.476 58.0544L191.696 61.2164L193.978 58.0861C194.124 57.8858 194.25 57.7593 194.47 57.7593C194.721 57.7593 194.805 57.9701 194.805 58.1809V63.7565C194.805 63.9779 194.69 64.1781 194.438 64.1781C194.187 64.1781 194.072 63.9779 194.072 63.7565V59.0136L191.999 61.8804C191.79 62.1861 191.465 62.1439 191.287 61.8804L189.34 59.119V63.7565C189.34 63.9779 189.246 64.1781 189.005 64.1781C188.754 64.1781 188.67 63.9779 188.67 63.7565V58.1809C188.66 57.928 188.764 57.7488 189.016 57.7488Z" fill="#060606"/>
<path d="M197.119 58.5815C197.014 58.3285 197.14 58.1915 197.338 58.0861C197.82 57.8332 198.637 57.6118 199.411 57.6118C201.118 57.6118 201.819 58.4866 201.819 59.9306V63.746C201.819 63.9674 201.704 64.1676 201.453 64.1676C201.202 64.1676 201.086 63.9674 201.086 63.746V62.7658C200.772 63.5036 200.008 64.2941 198.605 64.2941C197.359 64.2941 196.501 63.6512 196.501 62.3864C196.501 60.7 198.019 60.2257 199.39 60.2257C200.123 60.2257 200.626 60.289 201.097 60.3522V59.9833C201.097 58.9504 200.573 58.2969 199.349 58.2969C198.71 58.2969 198.239 58.455 197.705 58.6658C197.485 58.7501 197.213 58.8028 197.119 58.5815ZM201.086 61.2586V61.0057C200.552 60.9319 200.176 60.8792 199.485 60.8792C198.197 60.8792 197.244 61.2692 197.244 62.3548C197.244 63.1031 197.736 63.609 198.689 63.609C200.322 63.609 201.086 62.2599 201.086 61.2586Z" fill="#060606"/>
<path d="M209.262 60.7527C209.262 62.6499 208.352 64.2941 206.206 64.2941C205.515 64.2941 204.886 64.1676 204.394 63.8831V66.3599C204.394 66.5813 204.279 66.7815 204.028 66.7815C203.777 66.7815 203.662 66.5813 203.662 66.3599V58.1599C203.662 57.9386 203.777 57.7383 204.028 57.7383C204.279 57.7383 204.394 57.9386 204.394 58.1599V59.2244C204.813 58.1599 205.63 57.6118 206.76 57.6118C208.446 57.6118 209.262 58.9188 209.262 60.7527ZM204.394 61.8699V63.1558C204.949 63.4825 205.525 63.6196 206.216 63.6196C207.943 63.6196 208.509 62.281 208.509 60.7633C208.509 59.3404 207.964 58.2969 206.656 58.2969C204.761 58.2969 204.394 60.2468 204.394 61.8699Z" fill="#060606"/>
<path d="M211.44 57.7488C211.691 57.7488 211.807 57.949 211.807 58.1704V60.7105L214.633 57.9174C214.811 57.7382 215.021 57.6855 215.188 57.8542C215.314 57.9807 215.303 58.2125 215.125 58.3917L212.498 60.8791L215.429 63.4825C215.596 63.6406 215.649 63.8725 215.502 64.0411C215.345 64.2414 215.083 64.1465 214.905 63.9884L211.807 61.1848V63.7354C211.807 63.9568 211.691 64.157 211.44 64.157C211.189 64.157 211.074 63.9568 211.074 63.7354V58.1598C211.074 57.9385 211.189 57.7488 211.44 57.7488Z" fill="#060606"/>
<path d="M221.427 63.2188C221.658 63.1029 221.846 63.1029 221.951 63.2821C222.055 63.4613 221.961 63.6615 221.794 63.7775C221.26 64.1358 220.527 64.2834 219.815 64.2834C217.784 64.2834 216.811 63.0291 216.811 60.9844C216.811 59.0556 217.889 57.6011 219.773 57.6011C221.49 57.6011 222.254 58.8342 222.254 60.0885C222.254 60.2887 222.244 60.4785 222.213 60.6471C222.16 61.0371 221.993 61.29 221.522 61.29H217.543C217.648 62.7867 218.454 63.5983 219.805 63.5983C220.443 63.6088 220.946 63.4507 221.427 63.2188ZM217.554 60.6471H221.553C221.574 60.4785 221.574 60.3098 221.574 60.1517C221.553 59.0767 220.977 58.2967 219.731 58.2967C218.465 58.2967 217.659 59.1294 217.554 60.6471Z" fill="#060606"/>
<path d="M226.526 63.746C226.526 63.9673 226.41 64.1676 226.159 64.1676C225.908 64.1676 225.793 63.9673 225.793 63.746V58.4233H223.709C223.5 58.4233 223.354 58.2969 223.354 58.0861C223.354 57.8858 223.5 57.7488 223.709 57.7488H228.598C228.808 57.7488 228.954 57.8963 228.954 58.0861C228.954 58.2969 228.808 58.4233 228.598 58.4233H226.515V63.746H226.526Z" fill="#060606"/>
<path fill-rule="evenodd" clip-rule="evenodd" d="M90.4719 29.3016C90.4719 26.3715 88.1164 24 85.206 24H51.2659C48.3555 24 46 26.3715 46 29.3016V50.6027C46 62.966 55.9559 72.9895 68.2359 72.9895C80.516 72.9895 90.4719 62.966 90.4719 50.6027C90.4719 42.1286 90.4823 37.7862 90.4719 29.3016Z" fill="#FFCC0F"/>
<path fill-rule="evenodd" clip-rule="evenodd" d="M66.7703 56.5261C66.7703 55.3667 65.8281 54.4392 64.6556 54.4392C63.504 54.4392 62.5828 55.3667 62.5828 56.5261C62.5828 57.6855 63.504 58.6341 64.6556 58.6341C65.8281 58.6341 66.7703 57.6855 66.7703 56.5261ZM74.2032 56.5261C74.2032 55.3667 73.261 54.4392 72.1095 54.4392C70.9579 54.4392 70.0157 55.3667 70.0157 56.5261C70.0157 57.6855 70.9579 58.6341 72.1095 58.6341C73.261 58.6341 74.2032 57.6855 74.2032 56.5261Z" fill="#060606"/>
</g>
<defs>
<clipPath id="clip0">
<rect width="190" height="49" fill="white" transform="translate(46 24)"/>
</clipPath>
</defs>
</svg>
