<svg width="160" height="160" viewBox="0 0 160 160" fill="none" xmlns="http://www.w3.org/2000/svg">
<path d="M45 65.7812C45 67.7704 45.7902 69.678 47.1967 71.0846C48.6032 72.4911 50.5109 73.2812 52.5 73.2812C54.4891 73.2812 56.3968 72.4911 57.8033 71.0846C59.2098 69.678 60 67.7704 60 65.7812C60 63.7921 59.2098 61.8845 57.8033 60.4779C56.3968 59.0714 54.4891 58.2812 52.5 58.2812C50.5109 58.2812 48.6032 59.0714 47.1967 60.4779C45.7902 61.8845 45 63.7921 45 65.7812ZM100 65.7812C100 67.7704 100.79 69.678 102.197 71.0846C103.603 72.4911 105.511 73.2812 107.5 73.2812C109.489 73.2812 111.397 72.4911 112.803 71.0846C114.21 69.678 115 67.7704 115 65.7812C115 63.7921 114.21 61.8845 112.803 60.4779C111.397 59.0714 109.489 58.2812 107.5 58.2812C105.511 58.2812 103.603 59.0714 102.197 60.4779C100.79 61.8845 100 63.7921 100 65.7812ZM80 10C41.3438 10 10 41.3438 10 80C10 118.656 41.3438 150 80 150C118.656 150 150 118.656 150 80C150 41.3438 118.656 10 80 10ZM121.094 121.094C115.75 126.438 109.531 130.625 102.609 133.562C95.4688 136.594 87.8594 138.125 80 138.125C72.1406 138.125 64.5312 136.594 57.375 133.562C50.4636 130.644 44.1857 126.409 38.8906 121.094C33.5469 115.75 29.3594 109.531 26.4219 102.609C23.4063 95.4688 21.875 87.8594 21.875 80C21.875 72.1406 23.4062 64.5312 26.4375 57.375C29.3564 50.4636 33.5912 44.1857 38.9062 38.8906C44.25 33.5469 50.4688 29.3594 57.3906 26.4219C64.5312 23.4063 72.1406 21.875 80 21.875C87.8594 21.875 95.4688 23.4062 102.625 26.4375C109.536 29.3564 115.814 33.5912 121.109 38.9062C126.453 44.25 130.641 50.4688 133.578 57.3906C136.594 64.5312 138.125 72.1406 138.125 80C138.125 87.8594 136.594 95.4688 133.562 102.625C130.647 109.534 126.412 115.807 121.094 121.094ZM80 83.2812C66.6406 83.2812 55.6875 93.7969 55 106.969C54.9915 107.138 55.0176 107.307 55.0766 107.466C55.1356 107.625 55.2263 107.771 55.3433 107.893C55.4602 108.016 55.6009 108.114 55.7568 108.18C55.9126 108.247 56.0805 108.281 56.25 108.281H63.7656C64.4219 108.281 64.9844 107.781 65.0312 107.125C65.625 99.3906 72.1094 93.2812 80 93.2812C87.8906 93.2812 94.3906 99.3906 94.9688 107.125C95.0156 107.781 95.5781 108.281 96.2344 108.281H103.75C103.92 108.281 104.087 108.247 104.243 108.18C104.399 108.114 104.54 108.016 104.657 107.893C104.774 107.771 104.864 107.625 104.923 107.466C104.982 107.307 105.008 107.138 105 106.969C104.312 93.7969 93.3594 83.2812 80 83.2812Z" fill="#887C47"/>
</svg>
