<svg width="160" height="160" viewBox="0 0 160 160" fill="none" xmlns="http://www.w3.org/2000/svg">
<path d="M80 10C41.3438 10 10 41.3438 10 80C10 118.656 41.3438 150 80 150C118.656 150 150 118.656 150 80C150 41.3438 118.656 10 80 10ZM80 138.125C47.9062 138.125 21.875 112.094 21.875 80C21.875 47.9062 47.9062 21.875 80 21.875C112.094 21.875 138.125 47.9062 138.125 80C138.125 112.094 112.094 138.125 80 138.125Z" fill="#887C47"/>
<path d="M109.219 55.1562H101.891C100.297 55.1562 98.7814 55.9219 97.8439 57.2344L73.2814 91.2969L62.1564 75.8594C61.2189 74.5625 59.7189 73.7813 58.1095 73.7813H50.7814C49.7658 73.7813 49.172 74.9375 49.7658 75.7656L69.2345 102.766C69.6944 103.408 70.3007 103.931 71.0032 104.291C71.7056 104.652 72.4839 104.841 73.2736 104.841C74.0633 104.841 74.8416 104.652 75.544 104.291C76.2464 103.931 76.8527 103.408 77.3126 102.766L110.219 57.1406C110.828 56.3125 110.235 55.1562 109.219 55.1562Z" fill="#887C47"/>
</svg>
