<svg width="112" height="112" viewBox="0 0 112 112" fill="none" xmlns="http://www.w3.org/2000/svg">
<circle cx="56" cy="56" r="54" stroke="#887C47" stroke-width="4"/>
<path d="M53.1458 85.0769C44.3934 85.0769 35.6739 85.0769 26.9231 85.0769C26.9231 72.9738 26.9231 60.8829 26.9231 48.7689C35.6661 48.7689 44.395 48.7689 53.1458 48.7689C53.1458 60.8721 53.1458 72.9553 53.1458 85.0769Z" fill="#887C47"/>
<path d="M85.0769 85.077C76.3151 85.077 67.5941 85.077 58.8464 85.077C58.8464 72.9738 58.8464 60.8799 58.8464 48.7675C67.5941 48.7675 76.323 48.7675 85.0769 48.7675C85.0769 60.8753 85.0769 72.9584 85.0769 85.077Z" fill="#887C47"/>
<path d="M61.5063 43.6058C61.6082 43.4198 61.674 43.2953 61.7446 43.1754C64.1051 39.1528 66.4327 35.1133 68.8371 31.1153C70.6223 28.1471 73.334 26.7714 76.8512 26.9682C80.8497 27.191 84.0895 30.2145 84.6616 34.2187C85.3481 39.0299 81.4437 43.5213 76.486 43.5812C71.6035 43.6412 66.7195 43.6166 61.8355 43.6289C61.7477 43.6289 61.6599 43.6166 61.5063 43.6058Z" fill="#887C47"/>
<path d="M50.8621 43.6011C50.7304 43.6134 50.6426 43.6288 50.5564 43.6288C45.6865 43.618 40.815 43.6349 35.9451 43.5827C32.0312 43.5412 28.7021 40.8067 27.8619 37.0454C26.8071 32.3203 30.0798 27.6644 34.9858 27.008C38.4388 26.5454 41.6912 27.9856 43.4937 31.0091C45.9216 35.0809 48.2993 39.1819 50.6975 43.2722C50.7523 43.3659 50.7947 43.4674 50.8621 43.6011Z" fill="#887C47"/>
</svg>
