<svg width="256" height="172" viewBox="0 0 256 172" fill="none" xmlns="http://www.w3.org/2000/svg">
<path d="M127.365 37.7709C127.365 37.7709 61.6098 93.6462 97.1836 143.47C127.365 185.741 193.522 173.365 232.858 135.342C259.322 109.762 261.134 56.7736 237.208 32.6548C197.564 -7.3089 150.276 -5.73157 107.789 23.1534C80.2381 41.8845 69 69.9292 69 69.9292" stroke="#887C47" stroke-width="4" stroke-linecap="round"/>
<g clip-path="url(#clip0)">
<path d="M205.603 68.6541C210.175 69.8714 214.138 71.9404 217.063 75.6517C219.462 78.6955 220.532 82.1904 220.911 85.9156C221.302 89.7464 220.851 93.5133 220.004 97.239C219.025 101.544 217.559 105.676 215.373 109.541C213.83 112.268 211.977 114.769 209.545 116.817C205.002 120.641 199.727 121.942 193.787 120.869C193.102 120.745 192.425 120.577 191.745 120.427C191.643 120.405 191.546 120.364 191.425 120.325C191.464 120.248 191.488 120.178 191.53 120.119C195.904 113.801 198.248 106.813 198.614 99.1831C198.744 96.4784 198.808 93.7705 198.878 91.0632C198.976 87.2529 199.903 83.6431 201.474 80.179C202.307 78.3442 203.123 76.5015 203.911 74.6476C204.721 72.7401 205.321 70.769 205.603 68.6541Z" fill="#887C47"/>
<path d="M204.571 68.3386C204.081 69.9623 203.441 71.45 202.601 72.8397C201.478 74.6956 200.314 76.5296 199.119 78.3425C196.509 82.3052 194.839 86.6023 194.315 91.3045C193.831 95.6489 192.797 99.8951 192.074 104.197C191.277 108.938 190.478 113.679 189.678 118.42C189.612 118.807 189.526 119.191 189.436 119.643C188.891 119.424 188.37 119.228 187.859 119.009C183.879 117.297 180.65 114.706 178.257 111.164C175.916 107.7 174.784 103.858 174.443 99.7789C174.096 95.6218 174.684 91.5742 175.868 87.6073C177.153 83.3049 179.148 79.3517 182.101 75.8967C184.545 73.0373 187.477 70.7899 191.03 69.3437C194.709 67.8456 198.543 67.4432 202.503 67.9957C203.177 68.0888 203.847 68.2173 204.571 68.3386Z" fill="#887C47"/>
</g>
<g clip-path="url(#clip1)">
<path d="M140.079 65.9944C145.957 63.1388 151.998 61.7379 158.491 63.0207C163.817 64.0727 168.184 66.8093 172.049 70.4158C176.024 74.1244 179.067 78.5283 181.66 83.248C184.656 88.7017 186.986 94.4134 188.319 100.496C189.26 104.787 189.668 109.121 189.052 113.499C187.903 121.675 183.642 127.841 176.478 132.09C175.652 132.581 174.794 133.016 173.948 133.474C173.821 133.543 173.682 133.588 173.521 133.656C173.489 133.539 173.449 133.443 173.437 133.342C172.089 122.674 168.008 113.136 161.277 104.712C158.892 101.726 156.435 98.7959 153.984 95.8615C150.535 91.7315 148.133 87.0622 146.535 81.9626C145.689 79.2614 144.819 76.567 143.909 73.886C142.972 71.1278 141.757 68.4937 140.079 65.9944Z" fill="#887C47"/>
<path d="M138.764 66.6121C139.768 68.7764 140.49 70.9326 140.912 73.1674C141.475 76.1521 141.975 79.1505 142.423 82.1546C143.405 88.72 145.673 94.7875 149.511 100.244C153.056 105.285 155.939 110.722 159.196 115.934C162.787 121.68 166.376 127.427 169.962 133.175C170.254 133.645 170.523 134.129 170.851 134.689C170.081 134.952 169.357 135.217 168.621 135.448C162.891 137.245 157.123 137.43 151.336 135.849C145.676 134.302 140.92 131.259 136.765 127.247C132.53 123.159 129.369 118.337 126.903 113.061C124.228 107.337 122.617 101.34 122.465 95.001C122.339 89.7552 123.291 84.7146 125.634 79.9599C128.06 75.0353 131.668 71.1315 136.296 68.1249C137.083 67.6123 137.899 67.1405 138.764 66.6121Z" fill="#887C47"/>
</g>
<path d="M42.0125 124.71C42.8294 124.713 43.4055 125.144 43.7343 126.028C44.717 128.673 45.7196 131.31 46.6641 133.968C47.9199 137.503 50.212 140.063 53.5198 141.703C55.2093 142.541 56.8942 143.388 58.5896 144.212C59.3126 144.564 59.8434 145.031 59.8596 145.917C59.8758 146.842 59.3307 147.332 58.5812 147.698C56.8865 148.524 55.2028 149.374 53.5107 150.206C50.1926 151.838 47.9147 154.409 46.6583 157.941C45.7119 160.599 44.7118 163.237 43.733 165.883C43.3705 166.862 42.8378 167.291 42.0002 167.29C41.1587 167.289 40.657 166.88 40.2835 165.869C39.3048 163.223 38.3182 160.58 37.3576 157.927C36.085 154.41 33.8142 151.828 30.489 150.204C28.7943 149.376 27.1126 148.521 25.4173 147.696C24.6916 147.342 24.1498 146.844 24.1401 145.982C24.1297 145.087 24.6618 144.57 25.4296 144.204C27.1074 143.401 28.7606 142.547 30.4314 141.73C33.8058 140.08 36.1115 137.467 37.3881 133.885C38.3267 131.252 39.3151 128.637 40.29 126.018C40.624 125.125 41.193 124.707 42.0125 124.71Z" fill="#887C47"/>
<path d="M9.00597 112.355C9.39293 112.356 9.66582 112.572 9.82159 113.014C10.287 114.336 10.762 115.655 11.2094 116.984C11.8042 118.752 12.89 120.031 14.4568 120.852C15.2571 121.27 16.0552 121.694 16.8583 122.106C17.2008 122.282 17.4522 122.516 17.4599 122.958C17.4675 123.421 17.2094 123.666 16.8543 123.849C16.0516 124.262 15.254 124.687 14.4525 125.103C12.8808 125.919 11.8018 127.205 11.2066 128.97C10.7583 130.299 10.2846 131.618 9.82098 132.941C9.64927 133.431 9.39692 133.645 9.00015 133.645C8.60154 133.644 8.3639 133.44 8.18698 132.935C7.72337 131.612 7.25607 130.29 6.80104 128.963C6.19822 127.205 5.12259 125.914 3.54747 125.102C2.74473 124.688 1.94812 124.261 1.14508 123.848C0.801352 123.671 0.544709 123.422 0.540109 122.991C0.535203 122.544 0.787247 122.285 1.1509 122.102C1.94567 121.701 2.72878 121.273 3.52018 120.865C5.1186 120.04 6.2108 118.733 6.81546 116.942C7.26006 115.626 7.72827 114.318 8.19005 113.009C8.34827 112.563 8.61779 112.353 9.00597 112.355Z" fill="#887C47"/>
<defs>
<clipPath id="clip0">
<rect width="55.4026" height="53.8909" fill="white" transform="translate(170.597 67.5273)"/>
</clipPath>
<clipPath id="clip1">
<rect width="76.4415" height="76" fill="white" transform="translate(118 62)"/>
</clipPath>
</defs>
</svg>
