<svg width="246" height="172" viewBox="0 0 246 172" fill="none" xmlns="http://www.w3.org/2000/svg">
<g clip-path="url(#clip0)">
<path d="M130.284 56.6642C134.874 49.8353 141.38 46.1632 149.332 44.9718C158.3 43.6285 166.819 45.3283 174.849 49.3882C189.733 56.9141 198.757 69.031 202.005 85.5255C203.156 91.3657 203.24 97.2541 202.607 103.161C202.474 104.398 202.318 105.633 202.123 106.862C202.074 107.175 201.902 107.533 201.672 107.743C193.5 115.211 184.213 120.468 173.228 122.339C172.718 122.426 172.21 122.519 171.7 122.605C171.656 122.612 171.606 122.588 171.426 122.553C174.791 114.091 174.257 105.742 170.595 97.4422C170.373 97.5061 170.095 97.5675 169.83 97.665C157.609 102.174 145.389 106.687 133.169 111.199C132.755 111.352 132.4 111.507 131.956 111.129C126.314 106.33 121.802 100.664 119.193 93.6398C114.891 82.0581 116.984 71.5872 124.896 62.2539C125.966 60.9916 127.251 59.9154 128.564 58.628C127.758 58.0492 127.097 57.5085 126.374 57.0745C125.66 56.6466 124.882 56.3267 124.155 55.9707C124.394 55.2224 124.633 54.472 124.896 53.6493C125.109 53.7021 125.386 53.77 125.698 53.8474C125.763 53.7278 125.85 53.6081 125.896 53.4738C130.45 40.1721 139.707 32.087 153.019 28.5245C158.214 27.134 163.512 26.713 168.855 27.1868C174.057 27.6479 179.051 28.8981 183.512 31.8044C186.014 33.4348 187.988 35.5389 189.11 38.3763C189.154 38.4894 189.177 38.6106 189.231 38.7987C188.971 38.8113 188.739 38.843 188.51 38.8309C181.27 38.4421 174.156 39.4877 167.058 40.7399C161.628 41.6979 156.207 42.7223 150.759 43.5622C145.856 44.318 140.914 44.6509 135.828 44.1676C136.052 43.966 136.211 43.803 136.389 43.6632C140.365 40.5397 144.925 38.7766 149.818 37.7944C150.397 37.6782 150.984 37.5988 151.561 37.4715C152.25 37.3192 152.559 36.8656 152.404 36.2279C152.245 35.5731 151.786 35.3895 151.164 35.4906C144.543 36.5699 138.48 38.8983 133.431 43.528C133.246 43.6979 132.885 43.8081 132.648 43.7558C132.116 43.6386 131.847 43.8639 131.565 44.2682C129.531 47.177 128.009 50.3402 126.877 53.7071C126.715 54.1859 126.824 54.3911 127.239 54.6445C128.267 55.2722 129.251 55.9722 130.284 56.6642Z" fill="#887C47"/>
<path d="M168.532 101.885C173.303 114.261 167.683 130.875 152.606 136.39C138.597 141.514 123.498 133.941 118.653 120.283C135.263 114.157 151.873 108.03 168.532 101.885Z" fill="#887C47"/>
</g>
<path d="M117.365 37.7709C117.365 37.7709 51.6098 93.6462 87.1836 143.47C117.365 185.741 183.522 173.365 222.858 135.342C249.322 109.762 251.134 56.7736 227.208 32.6548C187.564 -7.3089 140.276 -5.73157 97.7894 23.1534C70.2381 41.8845 59 69.9292 59 69.9292" stroke="#887C47" stroke-width="4" stroke-linecap="round"/>
<path d="M14.0092 21.0322C14.6112 21.0347 15.0357 21.3577 15.278 22.021C16.002 24.0044 16.7408 25.9824 17.4367 27.9762C18.362 30.6274 20.051 32.5471 22.4883 33.7774C23.7332 34.4056 24.9748 35.0407 26.2239 35.6591C26.7567 35.9228 27.1478 36.2735 27.1597 36.9377C27.1717 37.6316 26.7701 37.9991 26.2177 38.2732C24.969 38.893 23.7284 39.5301 22.4816 40.1544C20.0367 41.3782 18.3582 43.3069 17.4324 45.9556C16.7351 47.9489 15.9982 49.9274 15.277 51.9123C15.0099 52.6467 14.6174 52.9682 14.0002 52.9677C13.3801 52.9667 13.0105 52.66 12.7352 51.9019C12.0141 49.9175 11.2872 47.935 10.5793 45.9452C9.64162 43.3078 7.96841 41.3708 5.51822 40.1529C4.26951 39.5321 3.03035 38.891 1.78117 38.2717C1.24648 38.0065 0.84726 37.6326 0.840106 36.9861C0.832474 36.3154 1.22454 35.9277 1.79023 35.6527C3.02653 35.0511 4.24471 34.41 5.47577 33.7971C7.96221 32.56 9.66117 30.6002 10.6018 27.9135C11.2934 25.939 12.0217 23.9778 12.74 22.0136C12.9861 21.3439 13.4054 21.0303 14.0092 21.0322Z" fill="#887C47"/>
<path d="M45.5043 11.0161C45.7838 11.0174 45.9809 11.1789 46.0934 11.5105C46.4295 12.5022 46.7725 13.4912 47.0956 14.4881C47.5253 15.8137 48.3094 16.7736 49.441 17.3887C50.019 17.7028 50.5954 18.0204 51.1754 18.3295C51.4228 18.4614 51.6044 18.6367 51.6099 18.9689C51.6154 19.3158 51.429 19.4995 51.1725 19.6366C50.5928 19.9465 50.0168 20.2651 49.4379 20.5772C48.3028 21.1891 47.5235 22.1534 47.0936 23.4778C46.7699 24.4744 46.4277 25.4637 46.0929 26.4561C45.9689 26.8233 45.7866 26.9841 45.5001 26.9839C45.2122 26.9834 45.0406 26.83 44.9128 26.451C44.578 25.4587 44.2405 24.4675 43.9119 23.4726C43.4765 22.1539 42.6996 21.1854 41.562 20.5765C40.9823 20.2661 40.407 19.9455 39.827 19.6359C39.5787 19.5033 39.3934 19.3163 39.3901 18.9931C39.3865 18.6577 39.5686 18.4639 39.8312 18.3263C40.4052 18.0256 40.9708 17.705 41.5423 17.3986C42.6968 16.78 43.4856 15.8001 43.9223 14.4568C44.2434 13.4695 44.5815 12.4889 44.915 11.5068C45.0293 11.1719 45.2239 11.0151 45.5043 11.0161Z" fill="#887C47"/>
<defs>
<clipPath id="clip0">
<rect width="86" height="111" fill="white" transform="translate(117 27)"/>
</clipPath>
</defs>
</svg>
