<svg width="112" height="112" viewBox="0 0 112 112" fill="none" xmlns="http://www.w3.org/2000/svg">
<circle cx="56" cy="56" r="54" stroke="#887C47" stroke-width="4"/>
<path d="M55.8387 86.1297C49.6483 86.1297 43.4578 86.1953 37.2673 86.1102C30.8489 86.0228 27.5822 82.9881 28.0429 76.7145C28.4105 71.7434 29.6309 66.8086 30.7754 61.9298C31.1185 60.4622 32.3267 59.0943 33.4026 57.9159C35.9881 55.078 39.4631 54.6674 42.6564 56.718C51.5034 62.3963 60.3284 62.3865 69.1926 56.7618C72.5697 54.6188 76.2089 54.9784 78.6572 58.103C83.8453 64.7264 84.779 72.4528 83.4679 80.432C82.8749 84.028 79.8973 85.9547 75.7115 86.0422C69.0897 86.1783 62.463 86.0786 55.8387 86.0786C55.8387 86.0956 55.8387 86.1127 55.8387 86.1297Z" fill="#887C47"/>
<path d="M69.6877 39.9264C69.7097 47.716 63.3109 54.111 55.4834 54.1135C47.6118 54.1159 41.235 47.8181 41.1738 39.9774C41.1125 32.2339 47.5676 25.8316 55.427 25.8462C63.4286 25.8584 69.6656 32.0177 69.6877 39.9264Z" fill="#887C47"/>
</svg>
