<svg width="263" height="172" viewBox="0 0 263 172" fill="none" xmlns="http://www.w3.org/2000/svg">
<path d="M60.3654 37.7709C60.3654 37.7709 -5.39025 93.6462 30.1836 143.47C60.3654 185.741 126.522 173.365 165.858 135.342C192.322 109.762 194.134 56.7736 170.208 32.6548C130.564 -7.3089 83.276 -5.73157 40.7894 23.1534C13.2381 41.8845 2 69.9292 2 69.9292" stroke="#887C47" stroke-width="4" stroke-linecap="round"/>
<path d="M150.638 83.5249C149.676 82.7722 148.507 82.288 147.264 82.1278C146.022 81.9676 144.757 82.1378 143.613 82.6189L122.343 91.4756L109.959 70.5915C109.376 69.6089 108.524 68.7901 107.49 68.2201C106.455 67.6501 105.277 67.3495 104.078 67.3495C102.878 67.3495 101.7 67.6501 100.666 68.2201C99.6318 68.7901 98.7793 69.6089 98.1967 70.5915L85.8114 91.4752L64.5382 82.6169C63.3936 82.1405 62.1298 81.9728 60.889 82.1328C59.6482 82.2928 58.4797 82.774 57.5151 83.5225C56.5504 84.2709 55.8279 85.2567 55.4289 86.3689C55.0299 87.4811 54.9703 88.6756 55.2567 89.8179L65.9557 132.495C66.1593 133.321 66.5405 134.099 67.0761 134.783C67.6117 135.466 68.2904 136.041 69.0707 136.47C69.8552 136.903 70.7245 137.183 71.6269 137.295C72.5293 137.406 73.4465 137.347 74.324 137.12C93.7886 132.086 114.345 132.084 133.811 137.115C134.688 137.341 135.605 137.401 136.507 137.289C137.409 137.177 138.277 136.897 139.062 136.465C139.842 136.035 140.52 135.462 141.056 134.779C141.591 134.096 141.973 133.318 142.177 132.492L152.895 89.8226C153.187 88.6803 153.13 87.4841 152.731 86.3707C152.331 85.2572 151.606 84.2712 150.638 83.5253L150.638 83.5249Z" fill="#887C47"/>
<path d="M223.013 105.091C223.873 105.094 224.479 105.532 224.826 106.431C225.86 109.12 226.915 111.802 227.91 114.505C229.231 118.099 231.644 120.701 235.126 122.369C236.905 123.221 238.678 124.082 240.463 124.92C241.224 125.278 241.783 125.753 241.8 126.654C241.817 127.594 241.243 128.092 240.454 128.464C238.67 129.304 236.898 130.168 235.117 131.014C231.624 132.673 229.226 135.288 227.903 138.879C226.907 141.581 225.855 144.263 224.824 146.954C224.443 147.95 223.882 148.386 223 148.385C222.114 148.384 221.586 147.968 221.193 146.94C220.163 144.25 219.124 141.562 218.113 138.865C216.774 135.289 214.383 132.663 210.883 131.012C209.099 130.171 207.329 129.302 205.545 128.462C204.781 128.102 204.21 127.596 204.2 126.719C204.189 125.81 204.749 125.284 205.557 124.911C207.324 124.096 209.064 123.227 210.823 122.396C214.375 120.719 216.802 118.062 218.145 114.419C219.133 111.743 220.174 109.084 221.2 106.421C221.552 105.513 222.151 105.088 223.013 105.091Z" fill="#887C47"/>
<path d="M253.007 92.2189C253.437 92.2209 253.74 92.489 253.913 93.0396C254.43 94.6858 254.958 96.3276 255.455 97.9825C256.116 100.183 257.322 101.776 259.063 102.798C259.952 103.319 260.839 103.846 261.731 104.359C262.112 104.578 262.391 104.869 262.4 105.421C262.408 105.997 262.122 106.302 261.727 106.529C260.835 107.044 259.949 107.572 259.058 108.091C257.312 109.106 256.113 110.707 255.452 112.906C254.954 114.56 254.427 116.202 253.912 117.85C253.721 118.459 253.441 118.726 253 118.726C252.557 118.725 252.293 118.47 252.097 117.841C251.582 116.194 251.062 114.549 250.557 112.897C249.887 110.708 248.692 109.1 246.942 108.089C246.05 107.574 245.165 107.042 244.272 106.528C243.89 106.308 243.605 105.997 243.6 105.461C243.595 104.904 243.875 104.582 244.279 104.354C245.162 103.855 246.032 103.323 246.911 102.814C248.687 101.787 249.901 100.16 250.573 97.9304C251.067 96.2915 251.587 94.6637 252.1 93.0334C252.276 92.4775 252.575 92.2172 253.007 92.2189Z" fill="#887C47"/>
</svg>
