<svg width="112" height="112" viewBox="0 0 112 112" fill="none" xmlns="http://www.w3.org/2000/svg">
<circle cx="56" cy="56" r="54" stroke="#887C47" stroke-width="4"/>
<g clip-path="url(#clip0)">
<path d="M32.7557 83.1487C32.9057 82.0649 33.0822 80.7767 33.2626 79.4904C33.6271 76.901 33.9934 74.3134 34.3598 71.7258C34.6294 69.8112 34.8895 67.8947 35.178 65.9837C35.2331 65.625 35.1609 65.3852 34.9009 65.1212C30.9466 61.1079 26.998 57.0908 23.0607 53.0626C21.5971 51.5644 21.1567 49.7836 21.88 47.8355C22.5805 45.945 24.0612 44.9151 26.0753 44.5675C31.6395 43.6084 37.1998 42.6306 42.7639 41.6658C43.0714 41.6119 43.2423 41.4632 43.3904 41.1918C46.0633 36.2806 48.7532 31.3788 51.4318 26.4694C52.4133 24.67 53.9472 23.6886 56.0145 23.6923C58.0628 23.696 59.5891 24.67 60.5611 26.4527C63.2264 31.3323 65.8993 36.21 68.5532 41.0951C68.7526 41.4632 68.9955 41.6193 69.4056 41.69C75.0305 42.6659 80.6553 43.6474 86.2745 44.653C88.188 44.9951 89.5112 46.1216 90.1453 47.9024C90.8287 49.8226 90.3921 51.5755 88.9569 53.0459C85.0102 57.0871 81.0483 61.1153 77.0826 65.1379C76.832 65.3926 76.7713 65.625 76.8206 65.9614C77.2003 68.5639 77.561 71.1682 77.9293 73.7725C78.2957 76.36 78.662 78.9495 79.0284 81.537C79.1803 82.6077 79.3682 83.671 79.0265 84.7529C78.102 87.6899 74.7552 89.1454 71.9304 87.807C66.7877 85.37 61.6451 82.9349 56.51 80.4812C56.1265 80.299 55.8456 80.312 55.4678 80.4923C50.3327 82.9442 45.1919 85.3831 40.0454 87.8145C36.7043 89.3927 32.7576 86.9724 32.7557 83.1487Z" fill="#887C47"/>
</g>
<defs>
<clipPath id="clip0">
<rect width="68.9231" height="68.9231" fill="white" transform="translate(21.5385 21.5385)"/>
</clipPath>
</defs>
</svg>
