<svg width="20" height="20" viewBox="0 0 20 20" fill="none" xmlns="http://www.w3.org/2000/svg">
<path d="M3.12508 20H11.8751C12.2617 19.9996 12.6324 19.849 12.9059 19.5812C13.1793 19.3133 13.333 18.9502 13.3334 18.5714V16.4286H11.8751V18.5714H3.12508V1.42857H11.8751V3.57143H13.3334V1.42857C13.333 1.04981 13.1793 0.686664 12.9059 0.418837C12.6324 0.151009 12.2617 0.000378198 11.8751 0H3.12508C2.73843 0.000378198 2.36772 0.151009 2.09431 0.418837C1.8209 0.686664 1.66713 1.04981 1.66675 1.42857V18.5714C1.66713 18.9502 1.8209 19.3133 2.09431 19.5812C2.36772 19.849 2.73843 19.9996 3.12508 20Z" fill="#777670"/>
<path d="M13.1846 13.1847L15.6749 10.6945H5.83325V9.30557H15.6749L13.1846 6.81529L14.1666 5.83334L18.3333 10L14.1666 14.1667L13.1846 13.1847Z" fill="#777670"/>
</svg>
