<svg width="42" height="42" viewBox="0 0 42 42" fill="none" xmlns="http://www.w3.org/2000/svg">
<path d="M10.5 33.2042V36.4168C10.5 36.6953 10.8397 36.8491 11.0691 36.6787L30.9573 22.0452C31.1263 21.9215 31.263 21.7629 31.3571 21.5818C31.4511 21.4006 31.5 21.2017 31.5 21C31.5 20.7983 31.4511 20.5994 31.3571 20.4182C31.263 20.2371 31.1263 20.0786 30.9573 19.9548L11.0691 5.32133C10.8353 5.15093 10.5 5.3047 10.5 5.58315V8.79578C10.5 8.99942 10.6015 9.19476 10.7691 9.31944L26.6514 20.9979L10.7691 32.6806C10.6015 32.8052 10.5 33.0006 10.5 33.2042Z" fill="#887C47"/>
</svg>
