<svg width="48" height="48" viewBox="0 0 48 48" fill="none" xmlns="http://www.w3.org/2000/svg">
<circle cx="24" cy="24" r="24" fill="#887C47"/>
<g clip-path="url(#clip0)">
<path d="M23.9799 24.4913C19.8706 24.4913 16.4551 21.113 16.4551 17.1156C16.4551 12.9798 19.8706 9.6001 23.9814 9.6001C28.2318 9.6001 31.5062 12.9784 31.5062 17.1156C31.4989 19.0784 30.7047 20.958 29.298 22.3413C27.8913 23.7247 25.9874 24.4985 24.0047 24.4928L23.9799 24.4913ZM23.9799 13.9446C22.2402 13.9446 20.9164 15.3918 20.9164 17.117C20.9164 18.8393 22.2402 20.1497 23.9814 20.1497C25.7924 20.1497 27.0463 18.8393 27.0463 17.117C27.0478 15.3904 25.7924 13.9446 23.9799 13.9446ZM26.9765 30.6287L31.2284 34.6967C32.0648 35.591 32.0648 36.9014 31.2284 37.7294C30.3236 38.6237 28.9286 38.6237 28.2318 37.7294L23.9814 33.5922L19.8706 37.7294C19.4531 38.1427 18.8945 38.3486 18.2661 38.3486C17.7788 38.3486 17.2216 38.1413 16.7329 37.7294C15.8965 36.9014 15.8965 35.591 16.7329 34.6953L21.0532 30.6272C19.493 30.1699 17.9963 29.5222 16.5976 28.6991C15.5517 28.1475 15.3437 26.7694 15.9008 25.7341C16.5976 24.7001 17.8515 24.4251 18.9672 25.1149C20.478 26.0276 22.2137 26.5104 23.9836 26.5104C25.7534 26.5104 27.4891 26.0276 28.9999 25.1149C30.1156 24.4251 31.4379 24.7001 32.0648 25.7341C32.6932 26.7694 32.4125 28.1461 31.4364 28.6991C30.1142 29.5271 28.581 30.1477 26.9779 30.6301L26.9765 30.6287Z" fill="#14110E"/>
</g>
<defs>
<clipPath id="clip0">
<rect width="28.8" height="28.8" fill="white" transform="translate(9.60001 9.6001)"/>
</clipPath>
</defs>
</svg>
