<svg width="42" height="42" viewBox="0 0 42 42" fill="none" xmlns="http://www.w3.org/2000/svg">
<path d="M31.5 33.2042V36.4168C31.5 36.6953 31.1603 36.8491 30.9309 36.6787L11.0427 22.0452C10.8737 21.9215 10.737 21.7629 10.6429 21.5818C10.5489 21.4006 10.5 21.2017 10.5 21C10.5 20.7983 10.5489 20.5994 10.6429 20.4182C10.737 20.2371 10.8737 20.0786 11.0427 19.9548L30.9309 5.32133C31.1647 5.15093 31.5 5.3047 31.5 5.58315V8.79578C31.5 8.99942 31.3985 9.19476 31.2309 9.31944L15.3486 20.9979L31.2309 32.6806C31.3985 32.8052 31.5 33.0006 31.5 33.2042Z" fill="#887C47"/>
</svg>
