<svg width="160" height="160" viewBox="0 0 160 160" fill="none" xmlns="http://www.w3.org/2000/svg">
<path d="M138.422 83.3905C141.047 79.9218 142.5 75.6718 142.5 71.2499C142.5 64.2343 138.578 57.5936 132.266 53.8905C130.641 52.9373 128.79 52.4356 126.906 52.4374H89.4375L90.375 33.2343C90.5938 28.5936 88.9531 24.1874 85.7656 20.828C84.2013 19.1722 82.3141 17.8548 80.2206 16.9572C78.127 16.0595 75.8716 15.6008 73.5938 15.6093C65.4688 15.6093 58.2813 21.078 56.125 28.9061L42.7031 77.4999H22.5C19.7344 77.4999 17.5 79.7343 17.5 82.4999V139.375C17.5 142.141 19.7344 144.375 22.5 144.375H116.453C117.891 144.375 119.297 144.094 120.594 143.531C128.031 140.359 132.828 133.094 132.828 125.031C132.828 123.062 132.547 121.125 131.984 119.25C134.609 115.781 136.062 111.531 136.062 107.109C136.062 105.141 135.781 103.203 135.219 101.328C137.844 97.8593 139.297 93.6093 139.297 89.1874C139.266 87.2186 138.984 85.2655 138.422 83.3905ZM28.75 133.125V88.7499H41.4062V133.125H28.75ZM128.188 77.9686L124.766 80.9374L126.938 84.9061C127.653 86.2135 128.024 87.6814 128.016 89.1718C128.016 91.7499 126.891 94.203 124.953 95.8905L121.531 98.8593L123.703 102.828C124.419 104.135 124.79 105.603 124.781 107.094C124.781 109.672 123.656 112.125 121.719 113.812L118.297 116.781L120.469 120.75C121.184 122.057 121.555 123.525 121.547 125.016C121.547 128.516 119.484 131.672 116.297 133.109H51.4062V88.2499L66.9531 31.9218C67.354 30.478 68.2146 29.2043 69.4044 28.2936C70.5943 27.3829 72.0485 26.8848 73.5469 26.8749C74.7344 26.8749 75.9062 27.2186 76.8438 27.9218C78.3906 29.078 79.2188 30.828 79.125 32.6874L77.625 63.6874H126.75C129.531 65.3905 131.25 68.2655 131.25 71.2499C131.25 73.828 130.125 76.2655 128.188 77.9686Z" fill="#887C47"/>
</svg>
