<svg width="64" height="32" viewBox="0 0 64 32" fill="none" xmlns="http://www.w3.org/2000/svg">
<path d="M59.5045 12.875L0.53129 12.875C0.23908 12.875 0 12.9875 0 13.125V14.875C0 15.0125 0.23908 15.125 0.53129 15.125H59.5045C59.5045 15.125 61.6296 15.125 61.6296 15V13C61.6296 12.875 59.7967 12.875 59.5045 12.875Z" fill="#14110E"/>
<path d="M47.4074 21.7487V23.7885C47.4074 23.9653 47.6758 24.0629 47.8571 23.9547L63.5712 14.6636C63.7047 14.585 63.8127 14.4844 63.8871 14.3694C63.9614 14.2544 64 14.128 64 14C64 13.872 63.9614 13.7456 63.8871 13.6306C63.8127 13.5156 63.7047 13.415 63.5712 13.3364L47.8571 4.04529C47.6723 3.9371 47.4074 4.03473 47.4074 4.21153V6.25129C47.4074 6.38059 47.4876 6.50461 47.62 6.58377L60.169 13.9987L47.62 21.4162C47.4876 21.4954 47.4074 21.6194 47.4074 21.7487Z" fill="#14110E"/>
</svg>
