<svg width="48" height="48" viewBox="0 0 48 48" fill="none" xmlns="http://www.w3.org/2000/svg">
<circle opacity="0.6" cx="24" cy="24" r="24" fill="#887C47"/>
<path d="M18.4209 28.7997H16.9522C16.8249 28.7997 16.7546 28.6444 16.8325 28.5395L23.5221 19.4478C23.5787 19.3706 23.6512 19.3081 23.734 19.2651C23.8168 19.2221 23.9077 19.1997 23.9999 19.1997C24.0921 19.1997 24.1831 19.2221 24.2659 19.2651C24.3487 19.3081 24.4212 19.3706 24.4778 19.4478L31.1673 28.5395C31.2452 28.6464 31.1749 28.7997 31.0476 28.7997H29.579C29.4859 28.7997 29.3966 28.7533 29.3396 28.6767L24.0009 21.4162L18.6602 28.6767C18.6032 28.7533 18.5139 28.7997 18.4209 28.7997Z" fill="white"/>
</svg>
