<svg width="40" height="40" viewBox="0 0 40 40" fill="none" xmlns="http://www.w3.org/2000/svg">
<path fill-rule="evenodd" clip-rule="evenodd" d="M19.2692 27.9057H20.785C20.785 27.9057 21.2397 27.8264 21.4671 27.5886C21.6944 27.3507 21.6944 26.875 21.6944 26.875C21.6944 26.875 21.6944 24.8136 22.6039 24.4964C23.5133 24.1793 24.7259 26.5578 25.9385 27.43C26.848 28.1436 27.5301 27.985 27.5301 27.985L30.8647 27.9057C30.8647 27.9057 32.6079 27.8264 31.7742 26.32C31.6984 26.2407 31.3195 25.2893 29.2732 23.3071C27.1511 21.2457 27.4543 21.6421 29.9553 18.0743C31.4711 15.9336 32.0774 14.665 31.9258 14.0307C31.7742 13.4757 30.6374 13.6343 30.6374 13.6343H26.848C26.848 13.6343 26.5448 13.555 26.3933 13.7136C26.1659 13.8721 26.0901 14.11 26.0901 14.11C26.0901 14.11 25.4838 15.775 24.7259 17.2021C23.0586 20.1357 22.3765 20.2943 22.1491 20.1357C21.5428 19.7393 21.6944 18.3914 21.6944 17.5193C21.6944 14.665 22.1491 13.4757 20.8608 13.1586C20.4818 13.0793 20.1787 13 19.1176 13C17.7535 13 16.6166 13 16.0103 13.3171C15.5556 13.555 15.2525 14.0307 15.4798 14.0307C15.7072 14.0307 16.3135 14.1893 16.6166 14.5857C16.9198 15.2993 16.9198 16.4886 16.9198 16.4886C16.9198 16.4886 17.1471 19.8979 16.3893 20.2943C15.8588 20.6114 15.1767 19.9771 13.6609 17.2814C12.903 15.9336 12.2967 14.3479 12.2967 14.3479C12.2967 14.3479 12.2209 14.0307 11.9936 13.8721C11.7662 13.7136 11.3873 13.6343 11.3873 13.6343H7.82525C7.82525 13.6343 7.29473 13.6343 7.06737 13.8721C6.91579 14.11 7.06737 14.5064 7.06737 14.5064C7.06737 14.5064 9.87152 21.325 13.0546 24.8136C16.0103 28.1436 19.2692 27.9057 19.2692 27.9057Z" fill="#777670"/>
</svg>
