<svg width="48" height="48" viewBox="0 0 48 48" fill="none" xmlns="http://www.w3.org/2000/svg">
<circle cx="24" cy="24" r="24" fill="#887C47"/>
<path fill-rule="evenodd" clip-rule="evenodd" d="M23.123 33.4869H24.942C24.942 33.4869 25.4876 33.3918 25.7605 33.1064C26.0333 32.8209 26.0333 32.2501 26.0333 32.2501C26.0333 32.2501 26.0333 29.7764 27.1246 29.3958C28.216 29.0152 29.6711 31.8695 31.1262 32.9161C32.2176 33.7724 33.0361 33.5821 33.0361 33.5821L37.0377 33.4869C37.0377 33.4869 39.1294 33.3918 38.129 31.5841C38.0381 31.4889 37.5834 30.3472 35.1278 27.9687C32.5814 25.4949 32.9452 25.9707 35.9463 21.6892C37.7653 19.1204 38.4928 17.5981 38.3109 16.837C38.129 16.171 36.7649 16.3612 36.7649 16.3612H32.2176C32.2176 16.3612 31.8538 16.2661 31.6719 16.4564C31.3991 16.6467 31.3081 16.9321 31.3081 16.9321C31.3081 16.9321 30.5806 18.9301 29.6711 20.6427C27.6703 24.1629 26.8518 24.3532 26.579 24.1629C25.8514 23.6872 26.0333 22.0698 26.0333 21.0232C26.0333 17.5981 26.579 16.171 25.0329 15.7904C24.5782 15.6952 24.2144 15.6001 22.9412 15.6001C21.3041 15.6001 19.94 15.6001 19.2124 15.9807C18.6667 16.2661 18.3029 16.837 18.5758 16.837C18.8486 16.837 19.5762 17.0272 19.94 17.503C20.3037 18.3592 20.3037 19.7864 20.3037 19.7864C20.3037 19.7864 20.5766 23.8775 19.6671 24.3532C19.0305 24.7338 18.212 23.9727 16.3931 20.7378C15.4836 19.1204 14.7561 17.2175 14.7561 17.2175C14.7561 17.2175 14.6651 16.837 14.3923 16.6467C14.1195 16.4564 13.6647 16.3612 13.6647 16.3612H9.39029C9.39029 16.3612 8.75367 16.3612 8.48083 16.6467C8.29894 16.9321 8.48083 17.4078 8.48083 17.4078C8.48083 17.4078 11.8458 25.5901 15.6655 29.7764C19.2124 33.7724 23.123 33.4869 23.123 33.4869Z" fill="#14110E"/>
</svg>
